<?xml version="1.0" encoding="utf-8"?>
<!-- Generator: Adobe Illustrator 24.0.1, SVG Export Plug-In . SVG Version: 6.00 Build 0)  -->
<svg version="1.1" xmlns="http://www.w3.org/2000/svg" xmlns:xlink="http://www.w3.org/1999/xlink" x="0px" y="0px"
	 viewBox="0 0 500 500" style="enable-background:new 0 0 500 500;" xml:space="preserve">
<style type="text/css">
	.st0{fill:#FFFFFF;}
	.st1{fill:#CAE2FF;}
	.st2{opacity:0.41;fill:#A6CEF4;}
	.st3{fill:#4286E8;}
	.st4{fill:#1D54B5;}
	.st5{fill:#49B4D6;}
	.st6{fill:#F95858;}
	.st7{fill:#E53838;}
	.st8{fill:#E8F2FC;}
	.st9{fill:#FF9933;}
	.st10{fill:#3070CE;}
	.st11{fill:#13448C;}
	.st12{fill:#E54848;}
	.st13{fill:#FFB19E;}
	.st14{fill:#FF4751;}
	.st15{fill:#CC3241;}
	.st16{fill:#F48F7A;}
	.st17{fill:#09326D;}
	.st18{opacity:0.13;fill:#0E367C;}
	.st19{fill:#E4EDF7;}
	.st20{opacity:0.41;fill:#13448C;}
	.st21{opacity:0.32;fill:#0E367C;}
	.st22{fill-rule:evenodd;clip-rule:evenodd;fill:#FFB19E;}
	.st23{fill-rule:evenodd;clip-rule:evenodd;fill:#13448C;}
	.st24{fill-rule:evenodd;clip-rule:evenodd;fill:#F48F7A;}
	.st25{fill:#A31919;}
</style>
<g id="BACKGROUND">
	<rect class="st0" width="500" height="500"/>
</g>
<g id="OBJECTS">
	<g>
		<g>
			<g>
				<g>
					<path class="st1" d="M434.4,399.6c25.4,0,40.7-26,25.8-44.5c-0.3-0.4-0.6-0.8-1-1.2c-9.1-10.3-23-14-35.2-19.8
						c-3.4-1.6-6.8-3.5-9.2-6.5c-3.3-4.2-4.1-10-3.4-15.4c2.8-22.5,27.3-36.3,31.3-58.6c3-16.9-7.3-34-21.3-42.9
						c-14-8.9-30.9-11.2-47.2-11.9c-16.4-0.7-32.9-0.1-48.8-4.1c-4.2-1.1-8.5-2.6-11.4-6c-3.2-3.8-3.9-9.4-3.4-14.5
						c1.4-13.7,32.7-61,17-76.6c-6.2-6.1-14.5-9.5-23-8.6c-8.4,0.8-16.3,4.7-23.7,9.1c-15.6,9.2-70,70.1-89.5,79.3
						c-19.2,9-41.3,6.4-62.4,5.9c-21.1-0.4-44.5,2.7-58.3,19.4c-4.9,5.9-8.2,13.9-6.6,21.5c1,4.8,3.9,8.9,7.1,12.4
						c7.4,8,17,13.5,24,21.9c7,8.4,10.7,21.7,4.1,30.5c-2.6,3.4-6.3,5.6-9.9,7.6c-20.3,11.5-43.1,23.2-52,45.5
						c-4.5,11.4-4.4,24-1.1,35.8c3.6,12.5,16.1,21.3,30.5,21.3H434.4z"/>
				</g>
				<path class="st2" d="M459.2,353.9c-9.1-10.3-23-14-35.2-19.8c-3.4-1.6-6.8-3.5-9.2-6.5c-3.3-4.2-4.1-10-3.4-15.4
					c2.8-22.5,27.3-36.3,31.3-58.6c3-16.9-7.3-34-21.3-42.9c-14-8.9-30.9-11.2-47.2-11.9c-16.4-0.7-32.9-0.1-48.8-4.1
					c-4.2-1.1-8.5-2.6-11.4-6c-3.2-3.8-3.9-9.4-3.4-14.5c1.4-13.7,32.7-61,17-76.6c-5.4-5.3-12.4-8.5-19.6-8.7
					c9.9,2.7,17.1,8.4,11.9,20C307.6,135.9,194.6,225,274,233.8c79.4,8.8-52.1,79.4,7.8,84.3c45.7,3.7-48.1,57.3-94.9,81.5h247.5
					c25.4,0,40.7-26,25.8-44.5C459.9,354.7,459.5,354.3,459.2,353.9z"/>
				<path class="st1" d="M99,163.3c0,0,82.3,28.3,118.9-37.9S30,138.7,99,163.3z"/>
				<path class="st2" d="M200.1,99.6c5.8,3.9,7,10.9,0.9,21.9c-25.9,46.8-74.6,46.4-101,42.1c9.6,3,83.7,23.6,117.8-38.2
					C228,107.1,218.2,99.9,200.1,99.6z"/>
			</g>
			<g>
				<g>
					<g>
						<path class="st3" d="M72,369.1c0,0-3-2.8-1-13.4c2-10.6,7.1-20.9,4.6-32.4c-2.5-11.5-22.2-40.7-22.2-42.6
							c-0.1-1.9-6.1,33.9,4.1,48c10.2,14.1,11.4,19,10.9,26.4s0.1,13.4,1.2,15.1L72,369.1z"/>
						<path class="st4" d="M70.1,347.6c-1.2,4.7-1.9,16.7,0,19.5c0.2,0.3,0.4,0.1,0.7-0.4c-0.6-2-1-5.4,0.1-11.2
							c2-10.6,7.1-20.9,4.6-32.4c-2.5-11.5-22.2-40.7-22.2-42.6c0,0,3,24.3,12.9,40.9C73.4,333.5,71.3,342.9,70.1,347.6z"/>
					</g>
					<g>
						<path class="st3" d="M75.5,368.3c0,0-5.8-14.4,4-26.9c9.8-12.5,25.5-28.5,25.8-34.9c0,0,4,30.2-8.7,38.7
							c-12.7,8.5-21.7,9.9-19.5,23L75.5,368.3z"/>
						<path class="st4" d="M89.3,339.1c-14.2,10.3-15.4,22.3-13.2,27.8c0.2,0.4,0.5,0.7,0.9,0.8c-1.9-12.7,7-14.1,19.5-22.6
							c12.7-8.5,8.7-38.7,8.7-38.7S103.5,328.8,89.3,339.1z"/>
					</g>
					<g>
						<path class="st3" d="M66,368.6c0,0,1.9-7.6,0.9-15.9c-1-8.2-9.6-12.9-17.7-21.6c-4.1-4.5-5.4-28.2-2.8-30.4
							c0,0-14.2,17.2-12,29.8s25.4,20.8,27.5,26.9c2.1,6.1,2,11.2,2,11.2L66,368.6z"/>
						<g>
							<path class="st4" d="M41.6,307.5c-4.7,12.7,0.1,28.1,15.7,37.7c11.5,7,7.8,21.7,7.8,21.7l1.9-5.8c0.2-2.5,0.2-5.4-0.2-8.4
								c-1-8.2-9.6-12.9-17.7-21.6c-4-4.3-5.3-26.5-3.1-30.1C45.5,301.9,43.7,304.3,41.6,307.5z"/>
							<path class="st5" d="M46.2,301.1c0.2-0.2,0.3-0.3,0.3-0.3C46.4,300.8,46.3,300.9,46.2,301.1z"/>
						</g>
					</g>
					<g>
						<path class="st3" d="M78.5,367.7c0,0,3.3-12.4,11.6-14c8.2-1.7,17.7-13.8,18.2-16.2C108.3,337.4,106.9,360.4,78.5,367.7z"/>
						<path class="st4" d="M89.6,357.7c-5,2.5-7.1,5.9-7.9,9c25.3-8.1,26.6-29.3,26.6-29.3c-0.1,0.5-0.6,1.3-1.3,2.4
							C104.5,344.2,98.5,353.3,89.6,357.7z"/>
					</g>
				</g>
				<path class="st6" d="M96.3,363.1H53.3l5.1,32.2c0.4,2.4,2.5,4.2,5,4.2h22.9c2.5,0,4.6-1.8,5-4.2L96.3,363.1z"/>
				<polygon class="st7" points="95.5,368.5 96.3,363.1 53.3,363.1 54.1,368.5 				"/>
				<path class="st7" d="M85.9,363.1l-5.1,32.2c-0.4,2.4-2.5,4.2-5,4.2h10.4c2.5,0,4.6-1.8,5-4.2l5.1-32.2H85.9z"/>
			</g>
			<g>
				<g>
					<rect x="257" y="326.3" class="st0" width="9" height="73.4"/>
					<rect x="262.5" y="326.3" class="st8" width="3.5" height="73.4"/>
					<path class="st0" d="M287.3,393.6h-49c-1.7,0-3,1.3-3,3l0,0c0,1.7,1.3,3,3,3h49c1.7,0,3-1.3,3-3l0,0
						C290.3,395,289,393.6,287.3,393.6z"/>
					<path class="st8" d="M287.3,393.6h-49c-1.1,0-2,0.6-2.6,1.5h42.5c1.7,0,3,1.3,3,3c0,0.6-0.2,1.1-0.4,1.5h6.6c1.7,0,3-1.3,3-3
						C290.3,395,289,393.6,287.3,393.6z"/>
					<rect x="257" y="326.3" class="st8" width="9" height="6.5"/>
					<path class="st9" d="M312.5,224c-1.3-0.6-2.7-0.9-4.2-0.9h-50.5c-4.9,0-9.2,3.5-10.1,8.4l-15.8,82.7c-0.3,1.3-0.2,2.7,0,3.9
						c0,0,0,0.1,0,0.1h-14c-2.3,0-4.2,1.9-4.2,4.2c0,2.3,1.9,4.2,4.2,4.2h45.4v-0.1h29.2c4.9,0,9.2-3.5,10.1-8.4l15.8-82.7
						C319.4,230.4,316.7,225.8,312.5,224z"/>
					<path class="st8" d="M318.4,235.3L302.6,318c-0.9,4.8-5.2,8.3-10.1,8.3h-29.3v0.1h-45.4c-2.3,0-4.2-1.9-4.2-4.2
						c0-2.3,1.9-4.2,4.2-4.2h14c0,0,0-0.1,0-0.1c0.1,0,0.3,0,0.4,0h50.5c6.8,0,12.6-4.8,13.9-11.5l15.8-82.6
						C316.7,225.8,319.4,230.4,318.4,235.3z"/>
					<path class="st0" d="M296.8,306.1l-0.1,0.5c-1.3,6.7-7.1,11.5-13.9,11.5h-50.5c-0.1,0-0.3,0-0.4,0c0,0,0,0.1,0,0.1h-14
						c-2.1,0-3.8,1.5-4.1,3.5v-11.3c0,0,0-0.1,0-0.1c-0.3-2.2,1.6-4.2,3.8-4.2H296.8z"/>
					<path class="st0" d="M312.5,224l-15.8,82.6c-1.3,6.7-7.1,11.5-13.9,11.5h-50.5c-0.1,0-0.3,0-0.4,0c-0.2-1.2-0.3-2.6,0-3.9
						l15.8-82.7c0.9-4.8,5.2-8.4,10.1-8.4h50.5C309.8,223.1,311.2,223.4,312.5,224z"/>
				</g>
				<g>
					<path class="st4" d="M192.8,204.1h-86c-2,0-3.5,1.8-3.2,3.8l7.4,50.5c0.2,1.6,1.6,2.8,3.2,2.8h86c2,0,3.5-1.8,3.2-3.8
						l-7.4-50.5C195.8,205.3,194.4,204.1,192.8,204.1z"/>
					<path class="st10" d="M180.8,204.1h-73.9c-2,0-3.5,1.8-3.2,3.8l3.3,22.3c7.9,3.5,16.9,5.4,26.4,5.4
						C158,235.7,172.5,222.6,180.8,204.1z"/>
					<g>
						<path class="st3" d="M153.8,242.7h-11h-5.3c-1.4,0-2.5,1.2-2.3,2.6l4.9,33.9c0,0.1,0,0.2,0,0.3l0.2,1.3c0.2,1.1,1.1,2,2.3,2
							h5.3h10.8L153.8,242.7z"/>
						<path class="st4" d="M177.6,280.5c0-1.3-1.1-2.3-2.3-2.3h-12.3c-1.8,0-3.4-1.3-3.6-3.1l-3.6-26.4h2.1c1.4,0,2.5-1.2,2.3-2.6
							l-0.2-1.3c-0.2-1.1-1.1-2-2.3-2l-4.3,0c-1.9,0-3.5,1.7-3.2,3.6l4.5,33.5c0.2,1.7,1.7,2.9,3.3,2.9l17.2,0
							C176.6,282.8,177.6,281.8,177.6,280.5L177.6,280.5z"/>
					</g>
					<g>
						<path class="st3" d="M168.7,253.9c0,0.9-0.7,1.5-1.5,1.5c-0.9,0-1.5-0.7-1.5-1.5c0-0.9,0.7-1.5,1.5-1.5
							C168,252.4,168.7,253.1,168.7,253.9z"/>
						<path class="st3" d="M176.7,253.9c0,0.9-0.7,1.5-1.5,1.5c-0.9,0-1.5-0.7-1.5-1.5c0-0.9,0.7-1.5,1.5-1.5
							C176,252.4,176.7,253.1,176.7,253.9z"/>
						<circle class="st3" cx="182" cy="253.9" r="1.5"/>
					</g>
					<path class="st3" d="M191.1,227.6l4.5,30.9c0.2,1.6,1.6,2.8,3.2,2.8h1.3c2,0,3.5-1.8,3.2-3.8l-7.4-50.5
						c-0.2-1.6-1.6-2.8-3.2-2.8h-1.3c-2,0-3.5,1.8-3.2,3.8L191.1,227.6"/>
					<g>
						<path class="st3" d="M158.6,209.7h-30c-0.7,0-1.3,0.7-1.2,1.4l0.2,1.2c0.1,0.6,0.6,1,1.2,1h30c0.7,0,1.3-0.7,1.2-1.4l-0.2-1.2
							C159.7,210.1,159.2,209.7,158.6,209.7z"/>
					</g>
				</g>
				<g>
					<path class="st11" d="M280.5,225.1c-1-7.3-11.7-3.9-7.6-10.7c3.7-6.3-0.6-9.1-5.7-10.1c-6.5-1.3-2.8-3.8-6-9.9
						c-4-7.7-10.3-5.4-10.3-5.4s-7.8-4.2-15.8,2.5c-8.4,7.1-6.6,13.3-2.1,21.9c2.3,4.3-0.5,8.2-2.5,16.2
						c-2.4,9.6,9.4,28.8,34.7,15.8C275,240.3,281,228.9,280.5,225.1z"/>
					<path class="st6" d="M245.6,227.1c0,0-3.9,0.4-7.8,4.3c-2.6,2.6-15.6,28.4-15.6,28.4l-11.9-36.5l-8.7,0.7
						c0,0,9.8,58.8,17.5,58.9c7.2,0.1,30.2-37.9,30.2-37.9L245.6,227.1z"/>
					<path class="st6" d="M270.2,242.5l7.6,28.6l-45.2,3.7l0.2,8.2c0,0,52.1,0.2,62,0.1c6.5-0.1-5.8-51.9-13.6-57.8
						c-6.2-4.7-23.4-3.4-23.4-3.4l-12.2,5.2c0,0-14.2,14.1-5.7,27.3c6.7,10.4-1.8,30.7-1.8,30.7l28.9,1.7l25.8,0.2L270.2,242.5z"/>
					<path class="st12" d="M241.4,274.1l1.6-0.3c1.6-6.8,1.8-16-1.7-20.5c-7-8.8,0.2-21.6,4.3-26.2h0c-0.6,0.7-14,14.3-5.7,27.3
						C243.8,260.5,242.8,268.6,241.4,274.1z"/>
					<path class="st13" d="M232.8,276.7c-4.8,0.2-9.9,1.9-12.3,4.7c-0.5,0.6-0.1,1.6,0.7,1.6h11.6L232.8,276.7z"/>
					<g>
						<path class="st13" d="M257.8,212.3v9.7l-8.7,9.9l-0.1-0.1l-2.4-5v-5.4c-4.3-0.6-8.1-3.9-9.1-8.6l-1.2-6.7
							c0,0,6.5-0.7,11.6-5.9c0,0,1.5,2.8,3.8,5c1.6,1.6,3.8,2,4.7,2.9C257.5,209.1,257.9,210.7,257.8,212.3z"/>
						<path class="st14" d="M255.5,203.9c0,0-0.3-4.1-1.9-7.5c-1.8-4-4.3-8.7-9.4-8.7c0,0,12.6-2,14.7,15.5L255.5,203.9z"/>
						<g>
							<path class="st14" d="M263,206.8c-0.4-3.4-3.2-5.8-6.3-5.5c-3.1,0.3-5.3,3.3-5,6.7c0.4,3.4,3.2,5.8,6.3,5.5
								C261.1,213.1,263.3,210.1,263,206.8z"/>
							<path class="st15" d="M259.1,212.9c-3,0.3-5.7-2-6.1-5.3c-0.3-3,1.5-5.7,4.1-6.3c-0.2,0-0.3,0-0.5,0c-3.1,0.3-5.3,3.3-5,6.7
								c0.4,3.4,3.2,5.8,6.3,5.5c1-0.1,1.8-0.5,2.6-1C260.1,212.7,259.6,212.8,259.1,212.9z"/>
							<path class="st15" d="M260.8,206.9c-0.2-1.6-1.5-2.8-3-2.7c-1.5,0.2-2.6,1.6-2.4,3.2c0.2,1.6,1.5,2.8,3,2.7
								C259.9,210,261,208.5,260.8,206.9z"/>
						</g>
						<path class="st16" d="M254.9,217.2c-0.4,0.5-2.4,3-4.1,4.4c-0.7,0.6-1,1.4-1,2.2l-0.8,7.9l-2.4-5v-5.4l0.1-0.1
							C246.8,221.2,252.3,220.4,254.9,217.2z"/>
						<g>
							<path class="st14" d="M251.3,216.7l-0.1-0.6c3.2-0.5,5.5-4.8,5.5-4.8l0.5,0.3C257,211.8,254.7,216.2,251.3,216.7z"/>
							<path class="st14" d="M251.8,216.4c-0.1-0.5-0.9-0.8-1.8-0.6c-0.9,0.2-1.6,0.7-1.5,1.2c0.1,0.5,0.9,0.8,1.8,0.6
								C251.3,217.5,251.9,216.9,251.8,216.4z"/>
						</g>
					</g>
					<path class="st13" d="M209.6,223.5c0,0,1.2-10.1,0.1-10.5c-1.1-0.4-2.2,3.9-2.2,3.9s-4.7-9.1-7.9-8.1c-3.2,1,2.7,15,2.7,15
						L209.6,223.5z"/>
					<path class="st12" d="M241.4,274l35.6-3c1.2-0.1,2.1-1.2,1.8-2.4c-1.3-6.7-5.1-25.7-5.3-25.2c-0.3,0.7,3.6,22.5-1,24.7
						C269.4,269.6,241.4,274,241.4,274z"/>
					<g>
						<g>
							<path class="st13" d="M265.6,379.4c-0.3,0.1-0.5,0.2-0.7,0.5c-2.3,3.2-4.3,3.9-8.3,4.4c-0.2,0-0.5,0.1-0.7,0.2
								c0.3-0.5,1.6-2.6,0.7-4.6c-1-2.2-2.3-3.8-2.3-3.8l5.8-3.5C260.2,372.7,263.7,376.8,265.6,379.4z"/>
							<path class="st11" d="M269.9,386.8c-1,1-17.6,10-21.5,12.3c-0.5,0.3-1.5,0.8-1.6,0.3c-0.3-0.8,6.9-14.7,9.9-15.1
								c4-0.5,6-1.3,8.2-4.4c0.5-0.7,1.5-0.7,1.9,0C268.4,382.3,270.7,386,269.9,386.8z"/>
						</g>
						<path class="st11" d="M238.2,285c0,0-40.2,18.6-41.3,31.6c-0.9,11.5,58.3,64.1,58.3,64.1l9.4-3.9l-32.4-52.3
							c0,0,34.4-16.9,42.8-37.3L238.2,285z"/>
						<path class="st17" d="M212.6,313.2c-2.7,5.3-4.7,12.6-6.1,19.2c4.6,5.4,10.3,11.5,16.2,17.5c-4.4-17.3-8.3-34.7-6.9-37.2
							c2.6-4.7,19.6-17.4,31.7-23.6C247.4,289,218.9,301,212.6,313.2z"/>
					</g>
					<g>
						<g>
							<path class="st13" d="M241.9,390.2c-0.3-0.1-0.5-0.1-0.8,0.1c-3.5,1.6-5.6,1.3-9.4-0.2c-0.2-0.1-0.5-0.1-0.8-0.1
								c0.5-0.3,2.7-1.5,2.9-3.6c0.2-2.4-0.1-4.4-0.1-4.4l6.8-0.2C240.4,381.7,241.5,387,241.9,390.2z"/>
							<path class="st11" d="M242,399.2c-1.4,0.4-20.9,0.1-25.5,0.2c-0.6,0-1-0.5-0.9-1c0.2-0.9,13.2-9.4,16-8.3
								c3.7,1.5,5.8,1.8,9.4,0.2c0.7-0.3,1.6,0.1,1.7,1C242.9,394.1,243.1,398.9,242,399.2z"/>
						</g>
						<g>
							<path class="st4" d="M292.6,286.9c0,0,3.4,22.8-17,28.5c-16.1,4.5-33.4,6.9-33.4,6.9l1.2,64.7h-10.7c0,0-19.7-69.1-16.9-74.3
								c3.2-5.8,28.2-23.6,39-26.8L292.6,286.9z"/>
							<path class="st18" d="M242.2,322.3c0,0,17.3-2.3,33.4-6.9c20.4-5.8,17-28.5,17-28.5l-12.6-0.3c-3.8,8.2-16.1,28.4-46.1,30.6
								l6.8,69.8h2.8L242.2,322.3z"/>
						</g>
					</g>
				</g>
				<g>
					<g>
						<polygon class="st0" points="109.3,399.6 104.8,399.6 123.5,287.3 128,287.2 						"/>
						<polygon class="st0" points="294.5,399.6 299.2,399.6 276.1,286 271.3,286 						"/>
					</g>
					<g>
						<polygon class="st19" points="126.8,293.4 128,287.2 123.5,287.3 122.3,293.4 						"/>
						<polygon class="st19" points="277.6,293.4 276.1,286 271.3,286 272.8,293.4 						"/>
					</g>
					<path class="st0" d="M303.3,282.9H100.7c-1.3,0-2.3,1-2.3,2.3l0,0c0,1.3,1,2.3,2.3,2.3h202.7c1.3,0,2.3-1,2.3-2.3l0,0
						C305.6,283.9,304.6,282.9,303.3,282.9z"/>
				</g>
			</g>
			<g>
				<g>
					<path class="st4" d="M223.2,183.3l-5.3-30.9c-0.2-1.4-1.4-2.5-2.9-2.5l-49.7,0.5c-1.8,0-3.1,1.6-2.9,3.3l4.7,27.1l2.4,15.4
						c0.1,0.8,1.2,1,1.6,0.4l6.3-9.5l42.9-0.5C222.1,186.7,223.5,185.1,223.2,183.3z"/>
					<g>
						<g>
							<path class="st0" d="M205.6,159.5h-28.8c-0.5,0-0.9,0.4-0.8,0.9l0.1,0.8c0.1,0.4,0.4,0.7,0.8,0.7h28.8c0.5,0,0.9-0.4,0.8-0.9
								l-0.1-0.8C206.3,159.8,206,159.5,205.6,159.5z"/>
						</g>
						<g>
							<path class="st0" d="M206.5,167.2h-28.8c-0.5,0-0.9,0.4-0.8,0.9l0.1,0.8c0.1,0.4,0.4,0.7,0.8,0.7h28.8c0.5,0,0.9-0.4,0.8-0.9
								l-0.1-0.8C207.3,167.4,206.9,167.2,206.5,167.2z"/>
						</g>
						<g>
							<path class="st0" d="M199.7,175.4l-13.3,0c-0.5,0-0.9,0.4-0.8,0.9l0.1,0.8c0.1,0.4,0.4,0.7,0.8,0.7l13.3,0
								c0.5,0,0.9-0.4,0.8-0.9l-0.1-0.8C200.4,175.7,200.1,175.4,199.7,175.4z"/>
						</g>
					</g>
				</g>
				<g>
					<path class="st4" d="M425.1,134.3l6.6-29.1c0.3-1.3-0.4-2.3-1.8-2.3l-46.9,0.5c-1.7,0-3.5,1.5-4,3.1l-5.8,25.5l-3.6,14.5
						c-0.2,0.8,0.7,1,1.4,0.3l9.5-9l40.5-0.4C422.8,137.5,424.7,136,425.1,134.3z"/>
					<g>
						<g>
							<path class="st0" d="M416.7,112.3h-25.8c-0.4,0-0.9,0.4-1,0.8l-0.2,0.8c-0.1,0.3,0.1,0.6,0.5,0.6H416c0.4,0,0.9-0.4,1-0.8
								l0.2-0.8C417.3,112.6,417.1,112.3,416.7,112.3z"/>
						</g>
						<g>
							<path class="st0" d="M414.8,119.2h-25.8c-0.4,0-0.9,0.4-1,0.8l-0.2,0.8c-0.1,0.3,0.1,0.6,0.5,0.6h25.8c0.4,0,0.9-0.4,1-0.8
								l0.2-0.8C415.4,119.4,415.2,119.2,414.8,119.2z"/>
						</g>
						<g>
							<path class="st0" d="M405.7,126.6l-11.9,0c-0.4,0-0.9,0.4-1,0.8l-0.2,0.8c-0.1,0.3,0.1,0.6,0.5,0.6l11.9,0
								c0.4,0,0.9-0.4,1-0.8l0.2-0.8C406.3,126.9,406.1,126.6,405.7,126.6z"/>
						</g>
					</g>
				</g>
				<g>
					<path class="st6" d="M157.7,183.1c0.6,0.5,1.6,0,1.5-0.8l-6.4-36.7c-0.2-1.2-1.2-2.1-2.4-2.1l-42.2,0.5c-1.5,0-2.7,1.3-2.4,2.8
						l4.5,26.2c0.2,1.2,1.2,2.1,2.4,2.1l32.5-0.4c1.5,0,3,0.5,4.2,1.5L157.7,183.1z"/>
					<g>
						<g>
							<path class="st0" d="M144.6,154.4h-28.8c-0.5,0-0.9,0.4-0.8,0.9l0.1,0.8c0.1,0.4,0.4,0.7,0.8,0.7h28.8c0.5,0,0.9-0.4,0.8-0.9
								l-0.1-0.8C145.3,154.7,145,154.4,144.6,154.4z"/>
						</g>
						<g>
							<path class="st0" d="M145.5,162.1h-28.8c-0.5,0-0.9,0.4-0.8,0.9l0.1,0.8c0.1,0.4,0.4,0.7,0.8,0.7h28.8c0.5,0,0.9-0.4,0.8-0.9
								l-0.1-0.8C146.3,162.4,145.9,162.1,145.5,162.1z"/>
						</g>
					</g>
				</g>
			</g>
			<g>
				<g>
					<g>
						<path class="st4" d="M380,244.5l-0.2,5.8l-3.5,134.2h-13.9l-12.3-115c0,0,0,0,0,0l-15.6,38.8l10.7,76.2l-5.1,0l-8.5,0.1
							c0,0-25.4-76.1-24.9-81c0.5-4.9,19.6-58.7,19.6-58.7L380,244.5z"/>
						<polygon class="st6" points="381.3,161.4 355.3,157.8 354.7,157.7 342.2,157.7 342.1,157.8 327.2,161.5 327.2,245.2 
							381.3,245.2 						"/>
						<path class="st13" d="M425.9,177.6c0,0,1.9-11.8,3.3-11.9c1.4-0.1,1.2,5.2,1.2,5.2s8.3-8.8,11.6-6.6
							c3.3,2.2-7.9,16.1-7.9,16.1L425.9,177.6z"/>
						<path class="st3" d="M342.2,157.8l1.4,92.4h-19.5l-1.4-25.3l-25.9-0.4c-2.7,0.1-4.7-2.5-3.9-5.1l12.9-44.8
							c1.5-5.2,5.7-9.3,11-10.6l25.3-6.3L342.2,157.8z"/>
						<path class="st3" d="M434.9,180.8l-25.1,51.5c-1.6,2.9-5.7,3-7.4,0.1l-19.6-32.5l-1,50.3H361l-5.8-92.4l0.1,0l26.5,3.6
							c5,0.8,9.3,3.9,11.5,8.5l13.4,27.6c0.3,0.7,1.3,0.8,1.7,0.2l17-20.4L434.9,180.8z"/>
						<polygon class="st3" points="322.6,225.2 348.1,225.2 348.3,212.2 322.9,211.8 						"/>
						<path class="st13" d="M348.2,221.6c7.2-0.3,14.8-2.8,18.4-7c0.8-0.9,0.1-2.4-1.1-2.4h-17.4L348.2,221.6z"/>
						<polygon class="st20" points="338.3,225.7 338.3,225.3 322.8,225.2 324.1,250.2 328.8,229.5 						"/>
						<polygon class="st21" points="379.8,250.2 376.4,384.5 375.4,384.5 366.1,250.2 						"/>
						<path class="st20" d="M348.3,212.1c0,0-34.5,2.5-34.2,1.8l6-20.6l0.1,0.3l0.6,14.4C320.8,210,346.5,211.6,348.3,212.1z"/>
						<path class="st20" d="M409.8,232.3l25.1-51.5l-0.1,0c-2.7,0-26,48.8-28.4,50c-2.8,1.4-23.5-30.8-23.5-30.8l19.6,32.5
							C404.1,235.2,408.2,235.1,409.8,232.3z"/>
						<g>
							<path class="st11" d="M333.2,384.5c-3,6.1-17.2,9.2-17.2,9.2s-1,1.8,0.6,4.1c1.6,2.3,16.6,0.9,18.5,0.5
								c1.9-0.4,3.2-1.9,3.2-1.9s1.3,1.4,2,1.7c0.7,0.3,4.5-0.4,4.5-0.4c0.9-2.4,0-11.7-0.3-13.2L333.2,384.5z"/>
						</g>
						<g>
							<path class="st11" d="M375.1,384.5c3,6.1,17.2,9.2,17.2,9.2s1,1.8-0.6,4.1c-1.6,2.3-16.6,0.9-18.5,0.5
								c-1.9-0.4-3.2-1.9-3.2-1.9s-1.3,1.4-2,1.7c-0.7,0.3-4.5-0.4-4.5-0.4c-0.9-2.4,0-11.7,0.3-13.2L375.1,384.5z"/>
						</g>
						<path class="st21" d="M334.6,308.3l10.7,76.2l-5.1,0c-3.2-16.4-14.2-71.3-13.8-74.7c0.5-4.1,23.2-39.1,23.9-40.3L334.6,308.3z
							"/>
					</g>
					<g>
						<g>
							<path class="st22" d="M355.2,157.9c-1.9,1.5-6.5,4.7-6.5,4.7s-4.6-3.2-6.6-4.7l0-11h13V157.9z"/>
							<path class="st22" d="M355.2,146.8v4.6c-3.8,3.1-9.2,3.1-13,0.1v-4.7H355.2z"/>
							<path class="st23" d="M334.2,139.7h29.3l0.5-8.2c6.5-2.7,1.6-18.2,1.6-18.2c0.4,3.7-9.7,3.9-13.7,3.2c-4-0.6-6.7,1-6.7,1
								s-12.7-2.7-12,15.1C333.3,135.4,333.7,137.6,334.2,139.7z"/>
							<g>
								<path class="st22" d="M360.4,131.5v7.3c0,3.1-1.3,6.1-3.6,8.3c-0.4,0.3-0.7,0.7-1.1,1c-3.9,3.7-10.1,3.7-14.1,0l-1.1-1
									c-2.3-2.1-3.6-5.1-3.6-8.3v-5.6c0,0,3.4-2.3,8.1-7.8C345,125.5,350.2,130.4,360.4,131.5z"/>
								<path class="st24" d="M355.2,148.7v2.8c-3.8,3.1-9.2,3.1-13,0.1v-2.8C346,151.8,351.4,151.8,355.2,148.7z"/>
								<path class="st22" d="M339.8,140.6c2.3-3.6-1.6-7.5-5.2-5.2c-0.3,0.2-0.5,0.4-0.7,0.7c-2.3,3.6,1.6,7.5,5.2,5.2
									C339.4,141.1,339.7,140.9,339.8,140.6z"/>
								<path class="st22" d="M363.2,140.6c2.2-3.6-1.4-7.3-4.9-5.4c-0.5,0.3-0.9,0.7-1.1,1.1c-1.9,3.6,1.8,7.2,5.4,4.9
									C362.8,141.1,363.1,140.9,363.2,140.6z"/>
							</g>
						</g>
						<g>
							<path class="st25" d="M363.1,132.8H362V129c0-6.4-5.8-11.6-13-11.6h-0.5c-7.2,0-13,5.2-13,11.6v3.9h-1.1V129
								c0-7,6.3-12.7,14.1-12.7h0.5c7.8,0,14.1,5.7,14.1,12.7V132.8z"/>
							<g>
								<g>
									<g>
										<path class="st6" d="M362.2,130.8L362.2,130.8c-1.7,0-3.1,1.4-3.1,3.1v5.6c0,1.7,1.4,3.1,3.1,3.1l0,0
											c1.7,0,3.1-1.4,3.1-3.1v-5.6C365.3,132.2,363.9,130.8,362.2,130.8z"/>
										<path class="st15" d="M362.2,130.8c-0.3,0-0.6,0.1-0.9,0.2c1.3,0.4,2.2,1.6,2.2,3v5.6c0,1.4-0.9,2.6-2.2,3
											c0.3,0.1,0.6,0.2,0.9,0.2c1.7,0,3.1-1.4,3.1-3.1v-5.6C365.3,132.2,363.9,130.8,362.2,130.8z"/>
									</g>
									<g>
										<path class="st6" d="M335.2,130.8L335.2,130.8c-1.7,0-3.1,1.4-3.1,3.1v5.6c0,1.7,1.4,3.1,3.1,3.1l0,0
											c1.7,0,3.1-1.4,3.1-3.1v-5.6C338.4,132.2,337,130.8,335.2,130.8z"/>
										<path class="st15" d="M335.2,130.8c-0.3,0-0.6,0.1-0.9,0.2c1.3,0.4,2.2,1.6,2.2,3v5.6c0,1.4-0.9,2.6-2.2,3
											c0.3,0.1,0.6,0.2,0.9,0.2c1.7,0,3.1-1.4,3.1-3.1v-5.6C338.4,132.2,337,130.8,335.2,130.8z"/>
									</g>
								</g>
								<g>
									<path class="st14" d="M353.7,146.1l0-0.6c3.6-0.2,6.7-4.7,6.7-4.7l0.5,0.4C360.8,141.3,357.6,145.9,353.7,146.1z"/>
									<path class="st14" d="M354.4,145.9c0-0.6-0.9-1-1.9-0.9c-1,0.1-1.8,0.6-1.8,1.2c0,0.6,0.9,1,1.9,0.9
										C353.6,147,354.4,146.5,354.4,145.9z"/>
								</g>
							</g>
						</g>
					</g>
				</g>
				<g>
					<path class="st11" d="M369.3,174h-45.5c-2.5,0-4.4,2.1-4.3,4.7l1.2,29.3c0.1,2.4,2.1,4.3,4.4,4.3H368c2.3,0,4.3-1.9,4.4-4.3
						l1.2-29.3C373.7,176.1,371.8,174,369.3,174z"/>
					<path class="st4" d="M369.3,174h-45.5c-1.2,0-2.4,0.5-3.1,1.4c0.4-0.1,0.8-0.2,1.2-0.2h45.5c2.5,0,4.4,2.1,4.3,4.7l-1.2,29.3
						c0,1.1-0.5,2.1-1.2,2.8c1.8-0.5,3.1-2.1,3.2-4.1l1.2-29.3C373.7,176.1,371.8,174,369.3,174z"/>
					<path class="st3" d="M351.4,193.9c0-2.8-2.3-5.2-5.2-5.2c-2.8,0-5.2,2.3-5.2,5.2c0,2.8,2.3,5.2,5.2,5.2
						C349.1,199,351.4,196.7,351.4,193.9z"/>
				</g>
			</g>
		</g>
	</g>
</g>
<g id="DESIGNED_BY_FREEPIK">
</g>
</svg>
