<?xml version="1.0" encoding="utf-8"?>
<!-- Generator: Adobe Illustrator 24.0.1, SVG Export Plug-In . SVG Version: 6.00 Build 0)  -->
<svg version="1.1" xmlns="http://www.w3.org/2000/svg" xmlns:xlink="http://www.w3.org/1999/xlink" x="0px" y="0px"
	 viewBox="0 0 3710 3710" style="enable-background:new 0 0 3710 3710;" xml:space="preserve">
<style type="text/css">
	.st0{fill:#FFFFFF;}
	.st1{opacity:0.3;fill:url(#SVGID_1_);}
	.st2{fill:url(#SVGID_2_);}
	.st3{fill:url(#SVGID_3_);}
	.st4{fill:url(#SVGID_4_);}
	.st5{fill:url(#SVGID_5_);}
	.st6{fill:url(#SVGID_6_);}
	.st7{fill:url(#SVGID_7_);}
	.st8{opacity:0.23;fill:#FFFFFF;}
	.st9{fill:url(#SVGID_8_);}
	.st10{fill:url(#SVGID_9_);}
	.st11{fill:url(#SVGID_10_);}
	.st12{opacity:0.78;fill:#FFFFFF;}
	.st13{opacity:0.74;}
	.st14{opacity:0.48;fill:#FFFFFF;}
	.st15{opacity:0.36;fill:#FFFFFF;}
	.st16{opacity:0.78;}
	.st17{fill:url(#SVGID_11_);}
	.st18{fill:url(#SVGID_12_);}
	.st19{fill:url(#SVGID_13_);}
	.st20{fill:url(#SVGID_14_);}
	.st21{fill:url(#SVGID_15_);}
	.st22{fill:url(#SVGID_16_);}
	.st23{fill:url(#SVGID_17_);}
	.st24{fill:url(#SVGID_18_);}
	.st25{fill:url(#SVGID_19_);}
	.st26{fill:url(#SVGID_20_);}
	.st27{fill:url(#SVGID_21_);}
	.st28{fill:url(#SVGID_22_);}
	.st29{fill:url(#SVGID_23_);}
	.st30{fill:url(#SVGID_24_);}
	.st31{fill:url(#SVGID_25_);}
	.st32{fill:url(#SVGID_26_);}
	.st33{fill:url(#SVGID_27_);}
	.st34{fill:url(#SVGID_28_);}
	.st35{fill:url(#SVGID_29_);}
	.st36{fill:url(#SVGID_30_);}
	.st37{fill:url(#SVGID_31_);}
	.st38{fill:url(#SVGID_32_);}
	.st39{fill:url(#SVGID_33_);}
</style>
<g id="Background">
	<g>
		<g>
			<rect class="st0" width="3710" height="3710"/>
		</g>
	</g>
</g>
<g id="Illustration">
	<g>
		<linearGradient id="SVGID_1_" gradientUnits="userSpaceOnUse" x1="3395.9294" y1="3561.6687" x2="1500.4934" y2="1543.9471">
			<stop  offset="0" style="stop-color:#B37CFF"/>
			<stop  offset="1" style="stop-color:#F895E7"/>
		</linearGradient>
		<path class="st1" d="M2826.8,2752.2c-70,72.1-132.6,114.5-180.5,146.5c-467.5,312.2-1001.9,222.2-1167.1,191.4
			c-266.6-49.6-491.6-84.6-684.9-259.3C354.9,2433.9,376.3,1606,712,1093.1c39.8-60.8,375-557.7,910.5-627.7
			c13.1-1.7,22.9-2.7,31.4-3.6c82.9-8.8,596.3-55.1,1014.9,295.7c59.9,50.2,156.4,140.8,245.8,278.9
			C3241.6,1541.4,3242.7,2323.5,2826.8,2752.2z"/>
		<g>
			<g>
				
					<linearGradient id="SVGID_2_" gradientUnits="userSpaceOnUse" x1="2761.1255" y1="376.8503" x2="2029.1616" y2="1204.9855" gradientTransform="matrix(-1 0 0 1 2910 0)">
					<stop  offset="0" style="stop-color:#A737D5"/>
					<stop  offset="1" style="stop-color:#EF497A"/>
				</linearGradient>
				<path class="st2" d="M1001,1837.6c0,0,6.1-258.1-112.7-327.2c-118.9-69.1-344.9-112.3-353.4-482.9c-5-217-10.3-311.8-13.9-353.2
					c-1.4-16.1,12.9-29.2,28.9-26.2c112.6,21.2,478.3,108.5,555,358.2C1195.7,1302.3,1001,1837.6,1001,1837.6z"/>
				
					<linearGradient id="SVGID_3_" gradientUnits="userSpaceOnUse" x1="2492.8318" y1="964.4654" x2="168.7092" y2="2626.0803" gradientTransform="matrix(-1 0 0 1 2910 0)">
					<stop  offset="0" style="stop-color:#CB236D"/>
					<stop  offset="1" style="stop-color:#4C246D"/>
				</linearGradient>
				<path class="st3" d="M636.8,751.3c123.6,110.2,266.5,305.3,342.7,500.4c9.8,32.1,38.4,100.5,50.8,222
					c11.1,101.3,5.6,208.4-7.9,279.2c-0.9,4.5-5.2,7.4-9.7,6.6c-7.7-1.5-6.7-9.7-6.6-9.5c15.4-121.1,9-271.8-26.2-407.7
					c-45-167-145.3-328.8-249-466.1l-10.7-13.5c-80.4-103.2-97.3-104-89.8-111.2C632.2,749.7,635,749.7,636.8,751.3z"/>
			</g>
			<g>
				
					<linearGradient id="SVGID_4_" gradientUnits="userSpaceOnUse" x1="2454.3977" y1="1134.7388" x2="1930.8021" y2="1786.561" gradientTransform="matrix(-1 0 0 1 2910 0)">
					<stop  offset="0" style="stop-color:#A737D5"/>
					<stop  offset="1" style="stop-color:#EF497A"/>
				</linearGradient>
				<path class="st4" d="M1192,2333.9c16.1,7.9-152.3-203.8-205-536.3c-24.9-156.7-25.2-353-114.4-428.6
					c-74.3-63-327.1-23.2-409.8-8.1c-10.3,1.9-13.8,14.9-5.8,21.7c39.7,33.3,124.5,111.9,146.6,191.1
					c29.1,104.4,128.4,170.8,217.2,188.7c88.8,18,138.2,35.4,181.5,177.5C1045.7,2081.8,1146.3,2311.5,1192,2333.9z"/>
				
					<linearGradient id="SVGID_5_" gradientUnits="userSpaceOnUse" x1="2289.2734" y1="1454.7998" x2="969.5997" y2="2480.6184" gradientTransform="matrix(-1 0 0 1 2910 0)">
					<stop  offset="0" style="stop-color:#CB236D"/>
					<stop  offset="1" style="stop-color:#4C246D"/>
				</linearGradient>
				<path class="st5" d="M579.1,1404.9c105.5,4.4,218.8,52.6,276.3,142.8l5.4,8.6c12.5,20.2,83.5,163.8,123,282.9
					c0.5,1.5-0.3,3.1-1.8,3.6c-2.5,0.8-3.8-1.9-3.5-1.7c-27.5-67.3-66.9-152.5-98.4-216.3c-33.7-69.6-57.3-116.7-134.2-161.8
					c-85.6-48.6-167.3-53.6-167.1-53.6c-1.2-0.1-2.2-1.2-2-2.5C576.9,1405.7,577.9,1404.9,579.1,1404.9z"/>
			</g>
		</g>
		<g>
			<g>
				<linearGradient id="SVGID_6_" gradientUnits="userSpaceOnUse" x1="1624.5486" y1="2910.4773" x2="2182.6758" y2="1236.0912">
					<stop  offset="0" style="stop-color:#2B3582"/>
					<stop  offset="1" style="stop-color:#150E42"/>
				</linearGradient>
				<path class="st6" d="M3065.7,2971.2c0,24-19.7,43.7-43.7,43.7H658.8c-24,0-43.7-19.6-43.7-43.7l-19.7-1358
					c0-24,28.3-70.9,80.1-67.4l2309.5-59.8c30.2-0.8,59.3,10.8,80.7,32.1c21.4,21.3,33,50.4,32.3,80.5L3065.7,2971.2z"/>
				<linearGradient id="SVGID_7_" gradientUnits="userSpaceOnUse" x1="3371.6079" y1="1452.6129" x2="-3628.7844" y2="5307.3823">
					<stop  offset="0" style="stop-color:#FDF53F"/>
					<stop  offset="1" style="stop-color:#D93C65"/>
				</linearGradient>
				<path class="st7" d="M3022.5,2929.3c0,22.7-18.6,41.3-41.3,41.3H715.8c-22.7,0-41.3-18.6-41.3-41.3l-18.6-1232.8
					c2.2-74.2,67.2-100.9,106.7-99.3l2213.5-59.4c21.2-0.6,41.7,7.6,56.7,22.6c15,15,23.2,35.5,22.7,56.6L3022.5,2929.3z"/>
				<g>
					<path class="st0" d="M698.9,2341.5c-2.1,0-3.9-1.7-3.9-3.8l-1.5-100c0-2.2,1.7-3.9,3.8-4c2.1-0.1,3.9,1.7,4,3.8l1.5,100
						C702.9,2339.7,701.2,2341.5,698.9,2341.5C699,2341.5,699,2341.5,698.9,2341.5z"/>
					<path class="st0" d="M695.3,2096.5c-2.1,0-3.9-1.7-3.9-3.8l-5.6-382.9c0.1-25.7,8.1-46.3,23.6-61.2
						c28.2-27,72.4-25.7,74.2-25.6l706.8-19c2.1-0.2,3.9,1.6,4,3.8c0.1,2.2-1.6,3.9-3.8,4l-707.1,19c-2-0.1-42.9-1.3-68.8,23.5
						c-14,13.4-21.1,32-21.2,55.5l5.6,382.9C699.3,2094.7,697.6,2096.4,695.3,2096.5C695.4,2096.5,695.4,2096.5,695.3,2096.5z"/>
				</g>
				<path class="st8" d="M774.3,2860.9c2.4-101.9,1.5-1004.2-4.4-1082.1c-5.8-77.9,115.5-92.5,301.9-101.3
					c186.3-8.8,1758.5-43.5,1799-46.8c91-7.4,109.8,128.6,100.7,423.9c-6.8,221.8-18.2,587.2-23.4,755.3
					c-1.6,50-42.4,89.7-92.5,89.9c-378.3,1-1828.4,5.2-1924.9,8.1C819.6,2911.1,773.3,2901.3,774.3,2860.9z"/>
			</g>
			<linearGradient id="SVGID_8_" gradientUnits="userSpaceOnUse" x1="1760.1747" y1="3637.5659" x2="1970.4974" y2="2487.5723">
				<stop  offset="0" style="stop-color:#2B3582"/>
				<stop  offset="1" style="stop-color:#150E42"/>
			</linearGradient>
			<path class="st9" d="M3197.7,3127.6H531c-32.8,0-59.7-26.8-59.7-59.7l0,0c0-32.8,26.8-59.7,59.7-59.7h2666.7
				c32.8,0,59.7,26.8,59.7,59.7l0,0C3257.4,3100.8,3230.5,3127.6,3197.7,3127.6z"/>
		</g>
		<g>
			<linearGradient id="SVGID_9_" gradientUnits="userSpaceOnUse" x1="2082.8618" y1="868.3748" x2="1663.6416" y2="3602.9797">
				<stop  offset="0" style="stop-color:#53D8FF"/>
				<stop  offset="0.2057" style="stop-color:#4DB9FD"/>
				<stop  offset="1" style="stop-color:#3840F7"/>
			</linearGradient>
			<path class="st10" d="M2669.8,660.7L1084.5,651c-52.1-0.3-93.8,43.2-91.2,95.2l109.1,2252.2h1764.1l97.9-2012.2L2669.8,660.7z"/>
			
				<linearGradient id="SVGID_10_" gradientUnits="userSpaceOnUse" x1="2817.9983" y1="732.2404" x2="2442.6909" y2="1185.9702" gradientTransform="matrix(0.9994 3.430000e-02 -3.430000e-02 0.9994 56.5304 -41.0612)">
				<stop  offset="0" style="stop-color:#53D8FF"/>
				<stop  offset="0.2057" style="stop-color:#4DB9FD"/>
				<stop  offset="1" style="stop-color:#3840F7"/>
			</linearGradient>
			<path class="st11" d="M2735.7,976.5c-51.6-1.8-91.3-46.3-87.3-97.8l17-215.1l299.3,321.2L2735.7,976.5z"/>
			<g>
				<g>
					<path class="st12" d="M1902.2,1093.1c130.3-0.6,630.5-4,756.8-4.8c15.9-0.1,28.5,16.5,27.8,36.6l0,0
						c-0.7,19.1-13.2,34.4-28.3,34.6l-756.4,9.4c-14.6,0.2-26.7-13.7-27.9-32l-0.3-4.6C1872.4,1111.3,1885.5,1093.1,1902.2,1093.1z"
						/>
				</g>
				<g>
					<path class="st12" d="M1895.8,1251c130.3-0.6,630.5-4,756.8-4.8c15.9-0.1,28.5,16.5,27.8,36.6l0,0
						c-0.7,19.1-13.2,34.4-28.3,34.6l-756.4,9.4c-14.6,0.2-26.7-13.7-27.9-32l-0.3-4.6C1866,1269.3,1879.1,1251.1,1895.8,1251z"/>
				</g>
				<g>
					<path class="st12" d="M1329.7,1473.7c219.8,0.2,1063.5-0.1,1276.5-0.2c26.9,0,48.7,16.6,48.2,36.7l0,0
						c-0.5,19.1-21.1,34.4-46.6,34.5l-1275.8,4.9c-24.6,0.1-45.5-13.8-48.2-32.2l-0.7-4.6C1280,1491.8,1301.6,1473.7,1329.7,1473.7z
						"/>
				</g>
				<g>
					<path class="st12" d="M1319.6,1639.5c171.1-0.7,827.8-4.5,993.6-5.4c20.9-0.1,37.8,16.4,37.3,36.5l0,0
						c-0.5,19.1-16.6,34.5-36.5,34.7l-993.1,10.1c-19.1,0.2-35.3-13.7-37.3-32l-0.5-4.6C1280.8,1657.8,1297.7,1639.6,1319.6,1639.5z
						"/>
				</g>
				<g>
					<path class="st12" d="M1327.6,1856.6c219.8,0.2,1063.5-0.1,1276.5-0.2c26.9,0,48.7,16.6,48.2,36.7l0,0
						c-0.5,19.1-21.1,34.4-46.6,34.5l-1275.8,4.9c-24.6,0.1-45.5-13.8-48.2-32.2l-0.7-4.6
						C1277.9,1874.7,1299.5,1856.5,1327.6,1856.6z"/>
				</g>
				<g>
					<path class="st12" d="M1308.5,2025.1c171.9,0.3,831.7,0.6,998.3,0.7c21,0,37.9,16.7,37.2,36.8l0,0
						c-0.6,19.1-16.9,34.3-36.9,34.4l-997.8,3.9c-19.2,0.1-35.4-13.9-37.3-32.2l-0.5-4.6C1269.3,2043.2,1286.5,2025.1,1308.5,2025.1
						z"/>
				</g>
				<g>
					<path class="st12" d="M1316.7,2247.3c219.8,0.2,1063.5-0.1,1276.5-0.2c26.9,0,48.7,16.6,48.2,36.7l0,0
						c-0.5,19.1-21.1,34.4-46.6,34.5l-1275.8,4.9c-24.6,0.1-45.5-13.8-48.2-32.2l-0.7-4.6C1267,2265.4,1288.6,2247.2,1316.7,2247.3z
						"/>
				</g>
				<g class="st13">
					<path class="st12" d="M1303.5,2413.8c171.9,0.3,831.7,0.6,998.3,0.7c21,0,37.9,16.7,37.2,36.8l0,0
						c-0.6,19.1-16.9,34.3-36.9,34.4l-997.8,3.9c-19.2,0.1-35.4-13.9-37.3-32.2l-0.5-4.6C1264.4,2431.9,1281.5,2413.8,1303.5,2413.8
						z"/>
				</g>
				<path class="st14" d="M1329.7,2633.4c219.8,0.2,1063.5-0.1,1276.5-0.2c26.9,0,48.7,16.6,48.2,36.7l0,0
					c-0.5,19.1-21.1,34.4-46.6,34.5l-1275.8,4.9c-24.6,0.1-45.5-13.8-48.2-32.2l-0.7-4.6C1280,2651.5,1301.6,2633.4,1329.7,2633.4z"
					/>
				<path class="st15" d="M1317.3,2818c169.7,0,821.2-0.8,985.7-1.1c20.8,0,37.4,16.6,36.8,36.7l0,0c-0.6,19.1-16.7,34.4-36.4,34.5
					l-985.2,5.7c-19,0.1-34.9-13.8-36.8-32.1l-0.5-4.6C1278.7,2836.2,1295.6,2818,1317.3,2818z"/>
			</g>
			<g class="st16">
				<path class="st0" d="M1478.1,1156.6l-53.3,161.4h-68.5l174.3-513.1h79.9l175.1,513.1h-70.8l-54.8-161.4H1478.1z M1646.3,1104.8
					l-50.2-147.7c-11.4-33.5-19-64-26.6-93.6h-1.5c-7.6,30.5-16,61.7-25.9,92.9l-50.2,148.5H1646.3z"/>
			</g>
		</g>
		<g>
			<g>
				<linearGradient id="SVGID_11_" gradientUnits="userSpaceOnUse" x1="1950.8827" y1="2110.6609" x2="1667.2186" y2="3473.2595">
					<stop  offset="0" style="stop-color:#18459F"/>
					<stop  offset="1" style="stop-color:#2874B5"/>
				</linearGradient>
				<path class="st17" d="M1662.2,3235.2c-1.5,0-3.1-0.3-4.6-1c-5.9-2.8-8.6-10.2-6.1-16.6l242.7-615.8c2.5-6.4,9.3-9.4,15.2-6.6
					c5.9,2.8,8.6,10.2,6.1,16.6l-242.7,615.8C1670.9,3232.3,1666.6,3235.2,1662.2,3235.2z"/>
				<linearGradient id="SVGID_12_" gradientUnits="userSpaceOnUse" x1="1980.3073" y1="2116.7869" x2="1696.6443" y2="3479.3804">
					<stop  offset="0" style="stop-color:#18459F"/>
					<stop  offset="1" style="stop-color:#2874B5"/>
				</linearGradient>
				<path class="st18" d="M1935.6,3235.2c-4.5,0-8.8-2.9-10.6-7.6l-242.7-615.8c-2.5-6.4,0.2-13.8,6.1-16.6
					c5.9-2.8,12.7,0.2,15.2,6.6l242.7,615.8c2.5,6.4-0.2,13.8-6.1,16.6C1938.6,3234.9,1937.1,3235.2,1935.6,3235.2z"/>
				<linearGradient id="SVGID_13_" gradientUnits="userSpaceOnUse" x1="2941.0105" y1="2316.7847" x2="2657.3464" y2="3679.3833">
					<stop  offset="0" style="stop-color:#18459F"/>
					<stop  offset="1" style="stop-color:#2874B5"/>
				</linearGradient>
				<path class="st19" d="M2695.2,3235.2c-1.5,0-3.1-0.3-4.6-1c-5.9-2.8-8.6-10.2-6.1-16.6l242.7-615.8c2.5-6.4,9.3-9.4,15.2-6.6
					c5.9,2.8,8.6,10.2,6.1,16.6l-242.7,615.8C2703.9,3232.3,2699.7,3235.2,2695.2,3235.2z"/>
				<linearGradient id="SVGID_14_" gradientUnits="userSpaceOnUse" x1="2970.4331" y1="2322.9099" x2="2686.7703" y2="3685.5032">
					<stop  offset="0" style="stop-color:#18459F"/>
					<stop  offset="1" style="stop-color:#2874B5"/>
				</linearGradient>
				<path class="st20" d="M2968.6,3235.2c-4.5,0-8.8-2.9-10.6-7.6l-242.7-615.8c-2.5-6.4,0.2-13.8,6.1-16.6
					c5.9-2.8,12.7,0.2,15.2,6.6l242.7,615.8c2.5,6.4-0.2,13.8-6.1,16.6C2971.7,3234.9,2970.1,3235.2,2968.6,3235.2z"/>
			</g>
			<g>
				<linearGradient id="SVGID_15_" gradientUnits="userSpaceOnUse" x1="2583.7571" y1="3384.2339" x2="2526.3467" y2="2749.3359">
					<stop  offset="0" style="stop-color:#FDF53F"/>
					<stop  offset="1" style="stop-color:#D93C65"/>
				</linearGradient>
				<rect x="2532.4" y="2820.2" class="st21" width="28.7" height="310.3"/>
				<linearGradient id="SVGID_16_" gradientUnits="userSpaceOnUse" x1="2569.343" y1="3385.5361" x2="2511.9329" y2="2750.6416">
					<stop  offset="0" style="stop-color:#FDF53F"/>
					<stop  offset="1" style="stop-color:#D93C65"/>
				</linearGradient>
				<path class="st22" d="M2672.4,3136.5h-251.3v-1.3c0-9.6,7.8-17.3,17.3-17.3h215.3C2664.1,3117.9,2672.4,3126.2,2672.4,3136.5z"
					/>
				<linearGradient id="SVGID_17_" gradientUnits="userSpaceOnUse" x1="2604.8159" y1="3382.3291" x2="2547.4055" y2="2747.4329">
					<stop  offset="0" style="stop-color:#FDF53F"/>
					<stop  offset="1" style="stop-color:#D93C65"/>
				</linearGradient>
				<path class="st23" d="M2709.7,2809.5c0,17-13.9,30.9-30.9,30.9h-254.3c-17,0-30.9-13.9-30.9-30.9v-27.9
					c0-17,13.9-30.9,30.9-30.9h254.3c17,0,30.9,13.9,30.9,30.9V2809.5z"/>
			</g>
			<g>
				<linearGradient id="SVGID_18_" gradientUnits="userSpaceOnUse" x1="2233.6431" y1="2867.9104" x2="2437.6694" y2="2867.9104">
					<stop  offset="0" style="stop-color:#F9B776"/>
					<stop  offset="1" style="stop-color:#F47960"/>
				</linearGradient>
				<path class="st24" d="M2335,2613.3c0,0-42.6,6.6-90.6,38.7c-7.5,5-11.7,13.8-10.5,22.8c5.7,45.5,29.3,192.6,107.2,336.4
					c4.1,7.6,5.3,16.4,3.5,24.8L2331,3099l-25.1,23.5h64.6l43-116.4l-18.4-5.8c-14.3-4.5-24-17.6-24.3-32.6l-2.2-124.8
					c1.8-55.6-34.1-94-34.1-94l103.1-5L2335,2613.3z"/>
				<linearGradient id="SVGID_19_" gradientUnits="userSpaceOnUse" x1="2358.479" y1="3000.8538" x2="2328.47" y2="3460.9927">
					<stop  offset="0" style="stop-color:#CB236D"/>
					<stop  offset="1" style="stop-color:#4C246D"/>
				</linearGradient>
				<path class="st25" d="M2280.7,3133.8c-5.9,7.7,63.3,17.9,98.3,1c0,0,48.5-84.3,48.5-127.7c0,0-3.8-8.9-32.3-6.8
					c0,0-16.3,99.8-33.5,111c-17.2,11.2-48.1,1.1-48.1,1.1S2289.3,3122.5,2280.7,3133.8z"/>
				<linearGradient id="SVGID_20_" gradientUnits="userSpaceOnUse" x1="1994.0819" y1="2881.8469" x2="2424.6187" y2="2881.8469">
					<stop  offset="0" style="stop-color:#F9B776"/>
					<stop  offset="1" style="stop-color:#F47960"/>
				</linearGradient>
				<path class="st26" d="M2424.6,2750.7c-0.5-0.9-111.1-13.3-111.1-13.3s3.6,33.6-7.7,79.9c-11.3,46.3-173.6,246.6-173.6,246.6
					l17,53.9c-52.6,18.3-104.3,21.3-155.3,9.3l105.4-63.3c0,0,98.7-336.3,159.1-396.2l110.8-38.3L2424.6,2750.7z"/>
				<linearGradient id="SVGID_21_" gradientUnits="userSpaceOnUse" x1="2144.9165" y1="2657.2515" x2="2627.241" y2="2657.2515">
					<stop  offset="0" style="stop-color:#2B3582"/>
					<stop  offset="1" style="stop-color:#150E42"/>
				</linearGradient>
				<path class="st27" d="M2672.4,2555.1c0,0,63.7,94.7,68.9,137.9c5.2,43.2-17.4,60.8-84.2,63.6c-66.8,2.9-245.1,2.8-245.1,2.8
					l-152.2-130.1c0,0,110.9-39.6,139.8-50.8C2428.3,2567.4,2672.4,2555.1,2672.4,2555.1z"/>
				<linearGradient id="SVGID_22_" gradientUnits="userSpaceOnUse" x1="2068.895" y1="2981.9685" x2="2038.886" y2="3442.106">
					<stop  offset="0" style="stop-color:#CB236D"/>
					<stop  offset="1" style="stop-color:#4C246D"/>
				</linearGradient>
				<path class="st28" d="M2142.9,3099.7c0,0,18.3,17.7,5.9,37.5c0,0-145.1,25.7-184.5,14c0,0,8.2-18.7,52.5-39.9l-3.3,2.5
					c-4.1,3.2-1.7,9.8,3.5,9.5C2046.4,3121.7,2106.9,3116.3,2142.9,3099.7z"/>
			</g>
			<g>
				<linearGradient id="SVGID_23_" gradientUnits="userSpaceOnUse" x1="2350.2681" y1="1927.5913" x2="2773.3301" y2="2300.3435">
					<stop  offset="0" style="stop-color:#2B3582"/>
					<stop  offset="1" style="stop-color:#150E42"/>
				</linearGradient>
				<path class="st29" d="M2455.5,2000.1c9.9-1.7,46.5-6.2,52.6,15.8c0.8,2.9,4.4,3.9,6.7,1.9c11.5-10.3,38.7-29.7,68.5-16
					c26.3,12.1,23.9,37.2,19.3,52.7c-1.1,3.7,3,6.8,6.2,4.7c23-15.5,75.9-43.1,109.8,2.4c31.6,42.5,5.8,71.9-11.5,85.3
					c-2.9,2.3-1.5,6.9,2.2,7.3c12.7,1.2,30.1,8.2,38.1,35.3c12.6,42.4-65.3,77.7-74.4,81.7c-0.6,0.3-1.2,0.4-1.8,0.3l-157.2-8.1
					c-1.2-0.1-2.4-0.7-3.1-1.7l-96.4-129.9c-0.8-1.1-1-2.4-0.6-3.7l38.6-125.1C2452.8,2001.5,2454,2000.4,2455.5,2000.1z"/>
				<linearGradient id="SVGID_24_" gradientUnits="userSpaceOnUse" x1="2020.4316" y1="3132.312" x2="2709.3616" y2="2166.4607">
					<stop  offset="0" style="stop-color:#A737D5"/>
					<stop  offset="1" style="stop-color:#EF497A"/>
				</linearGradient>
				<path class="st30" d="M2500.3,2542.5c0,0-74.1-70.6-110.6-117.4c-19.7-25.3-25.9-58.6-16.8-89.3c16.7-56.1,46.3-114.3,49-123.3
					c4.1-13.9,87.3-13.3,87.3-13.3s163.6,106.2,227.9,286l-72.2,22.5c0,0-42.7-71.7-84.9-117.2c0,0,73,96.5,75.6,136L2500.3,2542.5z
					"/>
				<linearGradient id="SVGID_25_" gradientUnits="userSpaceOnUse" x1="2477.6655" y1="2290.9475" x2="2456.1309" y2="2152.7673">
					<stop  offset="0" style="stop-color:#F9B776"/>
					<stop  offset="1" style="stop-color:#F47960"/>
				</linearGradient>
				<path class="st31" d="M2411.7,2135c0.9,2.9,22.6,74.8,24.3,76.3c1.7,1.5,47.6,4,69.2-10.8l-36.6-76.7L2411.7,2135z"/>
				<g>
					
						<linearGradient id="SVGID_26_" gradientUnits="userSpaceOnUse" x1="459.6741" y1="4055.8323" x2="649.902" y2="4185.0435" gradientTransform="matrix(0.7443 -0.6678 0.6678 0.7443 -715.8221 -601.6025)">
						<stop  offset="0" style="stop-color:#F9B776"/>
						<stop  offset="1" style="stop-color:#F47960"/>
					</linearGradient>
					<path class="st32" d="M2350.4,2033.6c0,0-18.1,38.5-0.1,98.4s50.2,66.1,71.2,52.1c21-14,48.4-39.4,53.4-93
						C2479.9,2037.4,2375.2,1985,2350.4,2033.6z"/>
					<linearGradient id="SVGID_27_" gradientUnits="userSpaceOnUse" x1="2323.2224" y1="1958.2874" x2="2746.283" y2="2331.0383">
						<stop  offset="0" style="stop-color:#2B3582"/>
						<stop  offset="1" style="stop-color:#150E42"/>
					</linearGradient>
					<path class="st33" d="M2435,2086.3c0,0-33.3-81.4-88.6-33.1l-4.8,20.5c0,0-50.7-16.2-32.4-62c18.3-45.8,78.7-82.1,132.5-50.4
						c53.8,31.8,73,74.5,68.7,116.6c-4.3,42.1-35.5,26.7-35.5,26.7s-5.1-31.2-19.8-37.2c-14.7-6-15.1,17.5-15.1,17.5L2435,2086.3z"
						/>
					
						<linearGradient id="SVGID_28_" gradientUnits="userSpaceOnUse" x1="471.0769" y1="4039.0442" x2="661.3043" y2="4168.2549" gradientTransform="matrix(0.7443 -0.6678 0.6678 0.7443 -715.8221 -601.6025)">
						<stop  offset="0" style="stop-color:#F9B776"/>
						<stop  offset="1" style="stop-color:#F47960"/>
					</linearGradient>
					<path class="st34" d="M2447.3,2087.7c0,0-17.4-41.7,8.8-42.4c26.2-0.7,14.3,40.1,8.6,55L2447.3,2087.7z"/>
				</g>
				<linearGradient id="SVGID_29_" gradientUnits="userSpaceOnUse" x1="2601.2947" y1="2530.2065" x2="3005.7317" y2="2530.2065">
					<stop  offset="0" style="stop-color:#F9B776"/>
					<stop  offset="1" style="stop-color:#F47960"/>
				</linearGradient>
				<path class="st35" d="M2349.2,2547.8l54.5-52.5l75.4,31.8c0,0,75,11.6,117.9,0c42.9-11.6,42.9-11.6,42.9-11.6l97-30.2l15.2,43.1
					c3.9,10.9,0,23.1-9.5,29.8c-8.4,6-18.2,12.5-24.5,15.3c-12.8,5.6-314.9-3.9-314.9-3.9L2349.2,2547.8z"/>
			</g>
			<g>
				
					<linearGradient id="SVGID_30_" gradientUnits="userSpaceOnUse" x1="2521.5056" y1="2671.3574" x2="2266.9094" y2="2741.1357" gradientTransform="matrix(0.9988 -4.940000e-02 4.940000e-02 0.9988 -41.469 -55.0328)">
					<stop  offset="0" style="stop-color:#2B3582"/>
					<stop  offset="1" style="stop-color:#150E42"/>
				</linearGradient>
				<path class="st36" d="M2555.4,2572.5c-0.2,0-0.5,0-0.7,0l-316-0.3c-7.8,0-14.1-6.3-14.1-14.2c0-7.8,6.4-14.3,14.2-14.1l316,0.3
					c7.8,0,14.1,6.3,14.1,14.2C2568.8,2566,2562.8,2572.1,2555.4,2572.5z"/>
				<linearGradient id="SVGID_31_" gradientUnits="userSpaceOnUse" x1="2264.3921" y1="2324.0854" x2="2083.7444" y2="2515.0188">
					<stop  offset="0" style="stop-color:#2B3582"/>
					<stop  offset="1" style="stop-color:#150E42"/>
				</linearGradient>
				<path class="st37" d="M1954.6,2285.6h263.2c19.4,0,37.1,11.2,45.4,28.8l121.7,258h-327c-12.5,0-23.8-7.6-28.3-19.3l-94.3-238.7
					C1929.6,2300.6,1939.8,2285.6,1954.6,2285.6z"/>
				<linearGradient id="SVGID_32_" gradientUnits="userSpaceOnUse" x1="2155.1824" y1="2371.6262" x2="2073.2156" y2="2495.0586">
					<stop  offset="0" style="stop-color:#53D8FF"/>
					<stop  offset="1" style="stop-color:#3840F7"/>
				</linearGradient>
				<path class="st38" d="M2140,2417.9c5.7,17.7,1.5,34.9-9.4,38.4c-10.9,3.5-24.4-8-30.1-25.7c-5.7-17.7-1.5-34.9,9.4-38.4
					C2120.8,2388.6,2134.3,2400.2,2140,2417.9z"/>
			</g>
			<linearGradient id="SVGID_33_" gradientUnits="userSpaceOnUse" x1="2254.0803" y1="2661.4653" x2="1970.4169" y2="4024.0613">
				<stop  offset="0" style="stop-color:#18459F"/>
				<stop  offset="1" style="stop-color:#2874B5"/>
			</linearGradient>
			<path class="st39" d="M2997,2584.1c0.8-3.6-0.3-7.3-3-10.1c-2.7-2.8-6.7-4.4-10.9-4.4H1559.9c-5.5,0-10.7,2.4-13.6,6.5
				c-3,4-3.4,9.1-1.1,13.5l15.4,29c3.5,6.6,11.2,10.9,19.6,10.9h1393.1c7.8,0,14.6-4.8,16.1-11.5L2997,2584.1z"/>
		</g>
	</g>
</g>
</svg>
