<?xml version="1.0" encoding="utf-8"?>
<!-- Generator: Adobe Illustrator 24.0.1, SVG Export Plug-In . SVG Version: 6.00 Build 0)  -->
<svg version="1.1" xmlns="http://www.w3.org/2000/svg" xmlns:xlink="http://www.w3.org/1999/xlink" x="0px" y="0px"
	 viewBox="0 0 500 500" style="enable-background:new 0 0 500 500;" xml:space="preserve">
<style type="text/css">
	.st0{display:none;}
	.st1{display:inline;}
	.st2{fill:#FDF5FC;}
	.st3{fill:#E6E6E6;}
	.st4{fill:url(#SVGID_1_);}
	.st5{fill:#FFFFF9;}
	.st6{fill:url(#SVGID_2_);}
	.st7{fill:url(#SVGID_3_);}
	.st8{fill:#CCCCCC;}
	.st9{fill:#4D4D4D;}
	.st10{fill:#666666;}
	.st11{fill:#999999;}
	.st12{fill:#FFFFFF;}
	.st13{fill:#4E8DA1;}
	.st14{fill:#98565C;}
	.st15{fill:#63419B;}
	.st16{fill:#A4686E;}
	.st17{fill:#3A1081;}
	.st18{fill:#88DCF2;}
	.st19{fill:#F1D34E;}
	.st20{fill:#C85676;}
	.st21{fill:#8043B1;}
	.st22{fill:#D78785;}
	.st23{fill:#FF0000;}
	.st24{fill:#FFFF00;}
	.st25{fill:#00FF00;}
	.st26{fill:#00FFFF;}
	.st27{fill:#0000FF;}
	.st28{fill:#FF00FF;}
	.st29{fill:#BF272D;}
	.st30{fill:#EF5A24;}
	.st31{fill:#F9AE3B;}
	.st32{fill:#FAEC21;}
	.st33{fill:#39B34A;}
	.st34{fill:#8AC43F;}
	.st35{fill:#006837;}
	.st36{fill:#00A79B;}
	.st37{fill:#0071BA;}
	.st38{fill:#333333;}
	.st39{fill:#808080;}
	.st40{fill:#B3B3B3;}
	.st41{fill:#F2F2F2;}
	.st42{fill:#EB1C24;}
	.st43{fill:#F5E5A1;}
	.st44{fill:#D1388D;}
	.st45{fill:url(#SVGID_4_);}
	.st46{fill:url(#SVGID_5_);}
	.st47{fill:url(#SVGID_6_);}
	.st48{fill:url(#SVGID_7_);}
	.st49{fill:url(#SVGID_8_);}
	.st50{fill:#4C258C;}
	.st51{fill:url(#SVGID_9_);}
	.st52{fill:url(#SVGID_10_);}
	.st53{fill:#E8B8B7;}
	.st54{fill:url(#SVGID_11_);}
	.st55{fill:url(#SVGID_12_);}
	.st56{fill:url(#SVGID_13_);}
	.st57{fill:url(#SVGID_14_);}
	.st58{fill:none;stroke:#63419B;stroke-width:3;stroke-miterlimit:10;}
	.st59{fill:url(#SVGID_15_);}
	.st60{fill:url(#SVGID_16_);}
	.st61{fill:url(#SVGID_17_);}
</style>
<g id="BACKGROUND" class="st0">
	<g class="st1">
		<g>
			<path class="st2" d="M46.3,364.7c19.1,17.5,46.7,24.8,72.3,23.7c14.2-0.6,28.9-3.3,42,2c4.1,1.6,7.7,3.9,11.1,6.5
				c12.7,9.9,21.5,25.4,34.4,35.1c25.5,19.2,59.7,27.8,92.5,25.4c19.8-1.5,39-7,55.7-16.7c10-5.9,19.1-13.3,26.7-22.2
				c5.5-6.5,10.3-13.8,14.1-22c1.1-2.4,2.1-4.9,3.1-7.4c2.4-6.5,3.9-13.2,4.6-19.9c0.9-8.2,0.8-16.5,0.2-24.8
				c-0.4-5.9-1-11.7-1.6-17.5c-0.9-8.5-1.9-17.3-2.7-26.1c-1.4-16.9-1.6-33.9,2.5-49.6c0.4-1.6,0.9-3.3,1.4-4.9
				c3.7-11.3,10-21.8,20.1-30.9c0.5-0.5,1-0.9,1.5-1.3c6.9-6,14.8-10.8,22.2-16.1c1.6-1.1,3.2-2.3,4.8-3.5
				c6.2-4.8,10.9-10.1,14.1-15.7c3.8-6.5,5.6-13.5,6-20.5c1.3-25.7-17.6-53.3-39-70.4c-21.8-17.5-49.3-23.1-71.8-10.3
				c-5.7,3.2-11,7.6-15.9,13.3c-0.2,0.2-0.3,0.4-0.5,0.6c-5.5,6.6-9.4,14.6-15,21.1c-0.9,1.1-1.9,2.2-2.9,3.2
				c-6.1,5.9-14.3,9.5-22.8,10.3l0,0c-7,0.7-14.3-0.4-20.6-3.6c-18-8.9-26.3-30.1-42.2-42.2l-1.9-1.4l-0.1,0
				c-15.2-10.4-35.2-10.8-53.4-7.6c-5.7,1-11.4,2.4-16.9,4.2c-16.3,5.2-31.6,13.8-43,25.9c-5.4,5.8-9.9,12.3-13.1,19.6
				c-1.3,2.9-2.3,5.9-3.1,9c-1.5,6.3-1.7,12.9,0.3,18.9c1.3,3.9,3.4,7.4,5.9,10.5c4.8,6,11.2,11.1,16.8,16.5
				c8.5,8.3,16,20.5,11.6,31.6c-0.6,1.4-1.3,2.7-2.1,3.9c-3.4,4.9-8.8,8.3-13.9,11.4c-2.7,1.6-5.4,3.2-8.2,4.7
				c-11,6-22.5,11.4-33.7,17.1c-14.8,7.5-29.2,15.8-41.4,27.1c-0.4,0.3-0.7,0.6-1,0.9c-12,11.4-18.2,25.6-19.1,40
				C23,331.5,30.7,350.5,46.3,364.7z"/>
		</g>
		<g>
			<g>
				
					<ellipse transform="matrix(0.9216 -0.3881 0.3881 0.9216 -86.1522 37.5776)" class="st2" cx="49.9" cy="232.1" rx="8.1" ry="8.1"/>
				<circle class="st2" cx="45.9" cy="254" r="4"/>
				<path class="st2" d="M29.9,238.8c-2.4,1.4-3.3,4.5-1.9,6.9c1.4,2.4,4.5,3.3,6.9,1.9c2.4-1.4,3.3-4.5,1.9-6.9
					C35.5,238.2,32.3,237.4,29.9,238.8z"/>
			</g>
			<g>
				
					<ellipse transform="matrix(0.7071 -0.7071 0.7071 0.7071 -14.988 391.3729)" class="st2" cx="464.9" cy="213.8" rx="11" ry="11"/>
				<path class="st2" d="M453.9,243.7c0,3,2.5,5.5,5.5,5.5s5.5-2.5,5.5-5.5c0-3-2.5-5.5-5.5-5.5S453.9,240.7,453.9,243.7z"/>
				<path class="st2" d="M437.7,222.9c-3.3,1.9-4.4,6.1-2.5,9.4c1.9,3.3,6.1,4.4,9.4,2.5c3.3-1.9,4.4-6.1,2.5-9.4
					C445.2,222.2,441,221,437.7,222.9z"/>
			</g>
			<g>
				<ellipse transform="matrix(0.9935 -0.114 0.114 0.9935 -3.9575 37.4356)" class="st2" cx="325.3" cy="53.3" rx="11" ry="11"/>
				<path class="st2" d="M314.3,83.2c0,3,2.5,5.5,5.5,5.5s5.5-2.5,5.5-5.5s-2.5-5.5-5.5-5.5S314.3,80.2,314.3,83.2z"/>
				<path class="st2" d="M298,62.5c-3.3,1.9-4.4,6.1-2.5,9.4c1.9,3.3,6.1,4.4,9.4,2.5c3.3-1.9,4.4-6.1,2.5-9.4
					C305.6,61.7,301.3,60.6,298,62.5z"/>
			</g>
			<g>
				
					<ellipse transform="matrix(0.3853 -0.9228 0.9228 0.3853 -295.6002 383.9627)" class="st2" cx="140.4" cy="413.9" rx="11" ry="11"/>
				<path class="st2" d="M129.4,443.8c0,3,2.5,5.5,5.5,5.5c3,0,5.5-2.5,5.5-5.5s-2.5-5.5-5.5-5.5
					C131.8,438.3,129.4,440.7,129.4,443.8z"/>
				<path class="st2" d="M113.1,423c-3.3,1.9-4.4,6.1-2.5,9.4c1.9,3.3,6.1,4.4,9.4,2.5c3.3-1.9,4.4-6.1,2.5-9.4
					C120.7,422.2,116.4,421.1,113.1,423z"/>
			</g>
		</g>
	</g>
</g>
<g id="OBJECTS">
	<ellipse class="st3" cx="251" cy="428.1" rx="189.6" ry="12.1"/>
	<g>
		<g>
			<g>
				<g>
					<linearGradient id="SVGID_1_" gradientUnits="userSpaceOnUse" x1="214.5774" y1="177.916" x2="372.6268" y2="48.5651">
						<stop  offset="1.923080e-03" style="stop-color:#3A1081"/>
						<stop  offset="0.7812" style="stop-color:#63419B"/>
					</linearGradient>
					<path class="st4" d="M362.5,189.2H197.3c-2.4,0-4.4-2-4.4-4.4V64c0-2.4,2-4.4,4.4-4.4h165.2c2.4,0,4.4,2,4.4,4.4v120.8
						C366.9,187.3,364.9,189.2,362.5,189.2z"/>
					<rect x="202.9" y="69.2" class="st5" width="154.1" height="110.4"/>
				</g>
				<linearGradient id="SVGID_2_" gradientUnits="userSpaceOnUse" x1="251.4709" y1="213.0247" x2="308.3247" y2="213.0247">
					<stop  offset="1.923080e-03" style="stop-color:#3A1081"/>
					<stop  offset="0.7812" style="stop-color:#63419B"/>
				</linearGradient>
				<path class="st6" d="M301.3,209.5h-42.9c-3.9,0-7,3.1-7,7l0,0h56.9l0,0C308.3,212.7,305.2,209.5,301.3,209.5z"/>
				<linearGradient id="SVGID_3_" gradientUnits="userSpaceOnUse" x1="279.8978" y1="213.3187" x2="279.8978" y2="190.9346">
					<stop  offset="1.923080e-03" style="stop-color:#3A1081"/>
					<stop  offset="0.7812" style="stop-color:#63419B"/>
				</linearGradient>
				<rect x="259.4" y="189.2" class="st7" width="41" height="20.3"/>
			</g>
			<g>
				<rect x="202.9" y="69.2" class="st8" width="154.1" height="4.1"/>
				<rect x="202.9" y="72.2" class="st9" width="154.1" height="4.1"/>
				<g>
					<rect x="202.9" y="75.9" class="st10" width="7.2" height="103.8"/>
					<rect x="202.9" y="75.9" class="st9" width="7.2" height="3"/>
					<circle class="st9" cx="206.3" cy="84.1" r="2"/>
					<circle class="st11" cx="206.3" cy="89.7" r="2"/>
					<circle class="st9" cx="206.3" cy="95.4" r="2"/>
					<circle class="st11" cx="206.3" cy="101" r="2"/>
					<circle class="st9" cx="206.3" cy="106.6" r="2"/>
					<circle class="st11" cx="206.3" cy="112.3" r="2"/>
					<circle class="st9" cx="206.3" cy="117.9" r="2"/>
					<circle class="st11" cx="206.3" cy="123.6" r="2"/>
					<circle class="st9" cx="206.3" cy="129.2" r="2"/>
					<circle class="st11" cx="206.3" cy="134.8" r="2"/>
					<circle class="st9" cx="206.3" cy="140.5" r="2"/>
					<rect x="205" y="145.9" class="st9" width="3.3" height="3.3"/>
					<rect x="204.3" y="144.2" class="st12" width="3.3" height="3.3"/>
				</g>
				<g>
					<rect x="349.7" y="75.9" class="st10" width="7.2" height="103.8"/>
					<rect x="349.7" y="75.9" class="st9" width="7.2" height="3"/>
					<circle class="st9" cx="353.2" cy="84.1" r="2"/>
					<circle class="st11" cx="353.2" cy="89.7" r="2"/>
					<circle class="st9" cx="353.2" cy="95.4" r="2"/>
					<circle class="st11" cx="353.2" cy="101" r="2"/>
					<circle class="st9" cx="353.2" cy="106.6" r="2"/>
					<circle class="st11" cx="353.2" cy="112.3" r="2"/>
					<circle class="st9" cx="353.2" cy="117.9" r="2"/>
					<circle class="st11" cx="353.2" cy="123.6" r="2"/>
					<circle class="st9" cx="353.2" cy="129.2" r="2"/>
					<circle class="st11" cx="353.2" cy="134.8" r="2"/>
					<circle class="st9" cx="353.2" cy="140.5" r="2"/>
				</g>
				<g>
					<g>
						<g>
							<path class="st13" d="M264.5,148h-11.1c-3.9,0-7.1-3.2-7.1-7.1v-17.7c0-3.9,3.2-7.1,7.1-7.1h11.1c3.9,0,7.1,3.2,7.1,7.1v17.7
								C271.6,144.8,268.4,148,264.5,148z"/>
							<g>
								<g>
									<path class="st14" d="M288.4,132.4l-3,6.1c2.7,0.2,5.8,0,8.3-0.7c1.4-0.4,3.1-0.6,4.4-0.9c1.3-0.3,2.1-0.5,3.3-1
										c1.5-0.1,2.2-0.2,3.6-0.5c1.4-0.3,2.2-0.5,3.1-1.1c1.2-0.9,1-2.9,0.2-3.6c-2.5-2.1-4.9-1.6-7.5,2.8c-1.4-0.2-5.9-1-8.3-1
										C291.3,132.5,289.9,132.5,288.4,132.4z"/>
									<path class="st3" d="M269.7,125.4c1.8,2.6,4,5.1,6.1,7.9c1,1.3,2.9,3.4,5.2,4.4l2.9-5.9c-0.4-0.1-0.7-0.1-1-0.2
										c-1-2.8-2.2-5.5-3.5-8.2c-0.8-1.7-1.7-3.3-2.7-4.8c-1.2-1.9-2.8-3.4-4.9-4c-1.2-0.3-2.4-0.5-3.4-0.3c0,0,0,0,0,0
										c-0.9,0.2-1.5,0.7-1.8,1.6c-0.1,0.5-0.2,1.2,0,2C267,120.7,268.2,123.1,269.7,125.4z"/>
								</g>
								<path class="st15" d="M281,137.7c0.5,0.2,1,0.4,1.6,0.4c0.9,0.1,1.8,0.2,2.8,0.3l3-6.1c-1.5-0.1-3.1-0.3-4.5-0.5L281,137.7z
									"/>
							</g>
							<g>
								<path class="st13" d="M263.4,110.7c-2.7-1.3-6.8-2.1-8.5-5.1c-1.5-2.6-1-7.7,0.1-10.4c1-2.6,3.6-5.4,6.7-5.6
									c1.4-0.1,3.2,1.4,4.5,2c1.6,0.7,2,1.6,1.9,3.2c-0.1,3-0.4,6.5-1.1,9.4c-0.7,2.7-2.1,4.8-3.4,7.2c-0.2-0.1-0.4-0.2-0.5-0.4"
									/>
							</g>
							<path class="st14" d="M266,108l-0.1,4.3c0,0-4.1-1.1-5.6-1.5c0.1-1.6,0.2-3.7,0.3-3.9L266,108z"/>
							<polygon class="st3" points="268.1,113.5 268.1,113.5 267.4,115.9 265.9,112.4 266.8,111.5 							"/>
							<path class="st15" d="M256,148c0.3-6.4-0.4-12.9-2.3-19.1l-0.9-3.1c-0.2-4.3-0.8-6.8,2.7-9c0.2-0.1,2.2-1.9,3.6-3.1l5.3,2.9
								l1.5-4.2l1.5,3.6l0.7-2.4l1.3,0.7c0,0,6.1,1.9,6.3,11.4c0,2.1-0.5,7.8-1,9.9c-0.7,3.1-1.1,7.5,1.4,12.5H256z"/>
							<g>
								<path class="st16" d="M255.8,103.9c-0.5-1.4-0.4-3.2,0.8-3.5c0.3-0.1,0.8,0,1.2,0.2c0.3-4.1,2.6-8.9,5.5-9.6
									c3.8-0.9,7.3,0.6,9.3,10.3c0.8,3.9-1.3,8.3-4.9,9.5c-2.7,0.9-6.4-1.7-8.4-4.6C257.9,106,256.5,105.6,255.8,103.9z"/>
							</g>
							<g>
								<path class="st13" d="M275.1,91.2c0-1-1.7-1.3-2.5-1.4c-1.4-0.3-2.8-0.2-4.2-0.3c-1.1-0.1-3.5-0.2-3.5-0.2
									c-3.7-0.4-8.2,1.6-8.9,5c-0.5,2.3,0.4,3.7,1.4,5.5c1.1,1.9,1.9,3.6,2.2,5.7c0.9-1.6,0.7-4.2,0.5-6c-0.1-1.6-0.1-1.5,1.3-1.9
									c1.3-0.4,2.4-0.9,3.4-1.7c-0.2,0.6-0.6,1.4-1,2.1c2.6-0.4,5.1-1,6.5-3.3c1.4,0.8,2.5,0.9,4.1,2.6c0.1-3.5-2-4.5-2-4.5
									C273.3,92.8,275.2,92.3,275.1,91.2z"/>
							</g>
							<g>
								<g>
									<path class="st14" d="M268.9,141.4l-4.7,4.8c2.5,1,5.5,1.8,8.1,1.9c1.5,0.1,3.1,0.4,4.5,0.5c1.3,0.1,2.1,0.2,3.4,0.1
										c1.5,0.4,2.1,0.4,3.6,0.6c1.4,0.2,2.2,0.2,3.3-0.1c1.4-0.5,1.9-2.4,1.3-3.3c-1.8-2.7-4.1-3.1-8,0.3
										c-1.2-0.6-5.3-2.8-7.6-3.5C271.6,142.4,270.3,141.9,268.9,141.4z"/>
									<path class="st3" d="M253.3,129c0.9,3,2.2,6,3.4,9.4c0.6,1.6,1.7,4.1,3.6,5.7l4.6-4.7c-0.3-0.2-0.6-0.3-0.9-0.5
										c-0.1-3-0.3-5.9-0.8-8.8c-0.3-1.8-0.6-3.7-1.1-5.5c-0.6-2.2-1.5-5.5-2.9-7.2c-1.3-1.5-5.2-1.3-6.3,2.3
										C251.9,122.6,252.5,126.3,253.3,129z"/>
								</g>
								<path class="st17" d="M260.2,144.1c0.4,0.4,0.9,0.7,1.3,0.9c0.8,0.4,1.7,0.8,2.6,1.2l4.7-4.8c-1.4-0.6-2.9-1.2-4.1-1.9
									L260.2,144.1z"/>
							</g>
							<path class="st3" d="M265.9,112.4l-1.5,4.2l-5.3-2.9l0,0l0.7-2.9c0.1,0,0.2,0,0.5,0.1C261.8,111.2,265.9,112.4,265.9,112.4z"
								/>
							<g>
								<g>
									<path class="st3" d="M267.7,117.6c0,0,0,0.1,0,0.1"/>
									<g>
										<path class="st12" d="M267,117.6c0,0,0,0.1,0,0.1c0,0.1,0,0.2,0.1,0.3c0,0.1,0.1,0.2,0.1,0.2c0.1,0.1,0.1,0.1,0.2,0.1
											c0.1,0,0.2,0.1,0.3,0.1c0.1,0,0.1,0,0.2,0c0.1,0,0.2-0.1,0.3-0.2c0,0,0.1-0.1,0.1-0.1c0.1-0.1,0.1-0.2,0.1-0.3
											c0,0,0-0.1,0-0.1c0-0.1,0-0.2-0.1-0.3c0-0.1-0.1-0.2-0.1-0.2c-0.1-0.1-0.1-0.1-0.2-0.1c-0.1,0-0.2-0.1-0.3-0.1
											c-0.1,0-0.1,0-0.2,0c-0.1,0-0.2,0.1-0.3,0.2c0,0-0.1,0.1-0.1,0.1C267,117.4,267,117.5,267,117.6L267,117.6z"/>
									</g>
								</g>
								<g>
									<path class="st3" d="M269.3,121.6"/>
									<g>
										<path class="st12" d="M269.3,122.3c0.8,0,0.9-1.3,0-1.3C268.4,120.9,268.4,122.3,269.3,122.3L269.3,122.3z"/>
									</g>
								</g>
								<g>
									<g>
										<path class="st12" d="M269.6,126.2c0.8,0,0.9-1.3,0-1.3C268.7,124.9,268.7,126.2,269.6,126.2L269.6,126.2z"/>
									</g>
								</g>
								<g>
									<path class="st3" d="M269.6,130.2c0,0,0.1,0,0.1,0"/>
									<g>
										<path class="st12" d="M269.6,130.9c0,0,0.1,0,0.1,0c0.1,0,0.2,0,0.3-0.1c0.1,0,0.2-0.1,0.2-0.1c0.1-0.1,0.1-0.1,0.1-0.2
											c0-0.1,0.1-0.2,0.1-0.3c0-0.1,0-0.1,0-0.2c0-0.1-0.1-0.2-0.2-0.3c0,0-0.1-0.1-0.1-0.1c-0.1-0.1-0.2-0.1-0.3-0.1
											c0,0-0.1,0-0.1,0c-0.1,0-0.2,0-0.3,0.1c-0.1,0-0.2,0.1-0.2,0.1c-0.1,0.1-0.1,0.1-0.1,0.2c0,0.1-0.1,0.2-0.1,0.3
											c0,0.1,0,0.1,0,0.2c0,0.1,0.1,0.2,0.2,0.3c0,0,0.1,0.1,0.1,0.1C269.3,130.8,269.4,130.9,269.6,130.9L269.6,130.9z"/>
									</g>
								</g>
							</g>
						</g>
						<g>
							<g>
								<path class="st15" d="M318,152.1L318,152.1c0,4.4-3.6,8-8,8h-70.6c-4.4,0-8-3.6-8-8v0H318z"/>
								<path class="st17" d="M323,152.1h-96.1c-1.3,0-2.3-1-2.3-2.3l0,0c0-1.3,1-2.3,2.3-2.3H323c1.3,0,2.3,1,2.3,2.3l0,0
									C325.3,151.1,324.3,152.1,323,152.1z"/>
							</g>
							<g>
								<g>
									<polygon class="st18" points="324.6,110.3 286.6,110.3 281.7,140.3 319.7,140.3 									"/>
									<polygon class="st13" points="312.6,121.4 295.1,121.4 292.9,135.2 310.3,135.2 									"/>
									<polygon class="st13" points="295.1,121.4 294.2,120.2 292,134 292.9,135.2 									"/>
									<polygon class="st13" points="294.2,120.2 311.7,120.2 312.6,121.4 295.1,121.4 									"/>
									<polygon class="st13" points="281.7,140.3 280.9,139 285.6,109.1 286.6,110.3 									"/>
									<polygon class="st13" points="285.6,109.1 323.7,109.1 324.6,110.3 286.6,110.3 									"/>
								</g>
								<rect x="289.6" y="145" class="st13" width="24.6" height="2.6"/>
								<polygon class="st13" points="295.9,145 297.3,126.9 307.3,126.9 308.7,145 								"/>
							</g>
						</g>
					</g>
				</g>
				<g>
					<g>
						<rect x="318.6" y="83.2" class="st10" width="30.1" height="25.5"/>
						<rect x="328.9" y="83.2" class="st9" width="9.9" height="5.6"/>
						<g>
							<g>
								<path class="st12" d="M342.1,87.9c-0.1,0-0.2,0-0.2-0.1c-0.1-0.1-0.1-0.3,0-0.4l0.9-0.9l-0.9-1.1c-0.1-0.1-0.1-0.3,0-0.4
									c0.1-0.1,0.3-0.1,0.4,0l1.1,1.3c0.1,0.1,0.1,0.3,0,0.4l-1.1,1.1C342.2,87.9,342.2,87.9,342.1,87.9z"/>
							</g>
							<g>
								<path class="st12" d="M344.5,87.9c-0.1,0-0.2,0-0.2-0.1c-0.1-0.1-0.1-0.3,0-0.4l0.9-0.9l-0.9-1.1c-0.1-0.1-0.1-0.3,0-0.4
									c0.1-0.1,0.3-0.1,0.4,0l1.1,1.3c0.1,0.1,0.1,0.3,0,0.4l-1.1,1.1C344.7,87.9,344.6,87.9,344.5,87.9z"/>
							</g>
						</g>
						<g>
							<rect x="319.9" y="89.6" class="st19" width="3.9" height="3.9"/>
							<rect x="323.8" y="89.6" class="st20" width="3.9" height="3.9"/>
							<rect x="327.7" y="89.6" class="st21" width="3.9" height="3.9"/>
							<rect x="331.6" y="89.6" class="st22" width="3.9" height="3.9"/>
							<rect x="335.6" y="89.6" class="st12" width="3.9" height="3.9"/>
							<rect x="339.6" y="89.6" width="3.9" height="3.9"/>
							<rect x="343.5" y="89.6" class="st23" width="3.9" height="3.9"/>
						</g>
						<g>
							<rect x="319.9" y="93.5" class="st24" width="3.9" height="3.9"/>
							<rect x="323.8" y="93.5" class="st25" width="3.9" height="3.9"/>
							<rect x="327.7" y="93.5" class="st26" width="3.9" height="3.9"/>
							<rect x="331.6" y="93.5" class="st27" width="3.9" height="3.9"/>
							<rect x="335.6" y="93.5" class="st28" width="3.9" height="3.9"/>
							<rect x="339.6" y="93.5" class="st29" width="3.9" height="3.9"/>
							<rect x="343.5" y="93.5" class="st30" width="3.9" height="3.9"/>
						</g>
						<g>
							<rect x="319.9" y="97.4" class="st31" width="3.9" height="3.9"/>
							<rect x="323.8" y="97.4" class="st32" width="3.9" height="3.9"/>
							<rect x="327.7" y="97.4" class="st33" width="3.9" height="3.9"/>
							<rect x="331.6" y="97.4" class="st34" width="3.9" height="3.9"/>
							<rect x="335.6" y="97.4" class="st35" width="3.9" height="3.9"/>
							<rect x="339.6" y="97.4" class="st36" width="3.9" height="3.9"/>
							<rect x="343.5" y="97.4" class="st37" width="3.9" height="3.9"/>
						</g>
						<g>
							<rect x="319.9" y="102.9" width="3.9" height="3.9"/>
							<rect x="323.8" y="102.9" class="st38" width="3.9" height="3.9"/>
							<rect x="327.7" y="102.9" class="st39" width="3.9" height="3.9"/>
							<rect x="331.6" y="102.9" class="st11" width="3.9" height="3.9"/>
							<rect x="335.6" y="102.9" class="st40" width="3.9" height="3.9"/>
							<rect x="339.5" y="102.9" class="st3" width="4" height="3.9"/>
							<rect x="343.5" y="102.9" class="st41" width="3.9" height="3.9"/>
						</g>
					</g>
					<g>
						<rect x="318.8" y="115.9" class="st10" width="30.1" height="25.5"/>
						<rect x="328.9" y="115.9" class="st9" width="9.9" height="5.6"/>
						<g>
							<g>
								<path class="st12" d="M342.1,120.7c-0.1,0-0.2,0-0.2-0.1c-0.1-0.1-0.1-0.3,0-0.4l0.9-0.9l-0.9-1.1c-0.1-0.1-0.1-0.3,0-0.4
									c0.1-0.1,0.3-0.1,0.4,0l1.1,1.3c0.1,0.1,0.1,0.3,0,0.4l-1.1,1.1C342.2,120.7,342.2,120.7,342.1,120.7z"/>
							</g>
							<g>
								<path class="st12" d="M344.5,120.7c-0.1,0-0.2,0-0.2-0.1c-0.1-0.1-0.1-0.3,0-0.4l0.9-0.9l-0.9-1.1c-0.1-0.1-0.1-0.3,0-0.4
									c0.1-0.1,0.3-0.1,0.4,0l1.1,1.3c0.1,0.1,0.1,0.3,0,0.4l-1.1,1.1C344.7,120.7,344.6,120.7,344.5,120.7z"/>
							</g>
						</g>
						<g>
							<g>
								<rect x="319.8" y="123.1" class="st39" width="28" height="4.1"/>
								<rect x="319.8" y="123.1" class="st11" width="4.3" height="4.1"/>
								<path class="st10" d="M323.2,125.1c0,0.4-0.6,0.7-1.3,0.7c-0.7,0-1.3-0.3-1.3-0.7c0-0.4,0.6-0.7,1.3-0.7
									C322.7,124.4,323.2,124.7,323.2,125.1z"/>
								<rect x="324.9" y="123.3" class="st3" width="3.8" height="3.6"/>
								<path class="st40" d="M346,126.2h-15.2c-0.5,0-0.9-0.4-0.9-0.9l0,0c0-0.5,0.4-0.9,0.9-0.9H346c0.5,0,0.9,0.4,0.9,0.9l0,0
									C346.9,125.8,346.5,126.2,346,126.2z"/>
							</g>
							<g>
								<rect x="319.8" y="127.7" class="st39" width="28" height="4.1"/>
								<rect x="319.8" y="127.7" class="st11" width="4.3" height="4.1"/>
								<path class="st10" d="M323.2,129.8c0,0.4-0.6,0.7-1.3,0.7c-0.7,0-1.3-0.3-1.3-0.7c0-0.4,0.6-0.7,1.3-0.7
									C322.7,129,323.2,129.4,323.2,129.8z"/>
								<rect x="324.9" y="128" class="st3" width="3.8" height="3.6"/>
								<path class="st40" d="M346,130.8h-15.2c-0.5,0-0.9-0.4-0.9-0.9l0,0c0-0.5,0.4-0.9,0.9-0.9H346c0.5,0,0.9,0.4,0.9,0.9l0,0
									C346.9,130.4,346.5,130.8,346,130.8z"/>
							</g>
						</g>
					</g>
				</g>
				<g>
					<rect x="351.7" y="69.9" class="st9" width="4" height="0.6"/>
					<rect x="351.7" y="70.7" class="st9" width="4" height="0.6"/>
				</g>
				<g>
					<path class="st42" d="M205.6,74.3c0,0.5-0.4,0.9-0.9,0.9c-0.5,0-0.9-0.4-0.9-0.9c0-0.5,0.4-0.9,0.9-0.9
						C205.2,73.4,205.6,73.8,205.6,74.3z"/>
					<path class="st19" d="M208.5,74.3c0,0.5-0.4,0.9-0.9,0.9c-0.5,0-0.9-0.4-0.9-0.9c0-0.5,0.4-0.9,0.9-0.9
						C208.1,73.4,208.5,73.8,208.5,74.3z"/>
					<path class="st33" d="M211.3,74.3c0,0.5-0.4,0.9-0.9,0.9c-0.5,0-0.9-0.4-0.9-0.9c0-0.5,0.4-0.9,0.9-0.9
						C211,73.4,211.3,73.8,211.3,74.3z"/>
				</g>
			</g>
		</g>
		<g>
			<g>
				
					<rect x="398" y="169.3" transform="matrix(0.9883 -0.1526 0.1526 0.9883 -23.0602 63.094)" class="st43" width="2.9" height="25"/>
				
					<rect x="410.4" y="167.4" transform="matrix(-0.9883 -0.1526 0.1526 -0.9883 791.4305 420.4484)" class="st44" width="2.9" height="25"/>
				
					<rect x="404.6" y="163.8" transform="matrix(-1 -1.224647e-16 1.224647e-16 -1 812.4456 355.2339)" class="st17" width="3.2" height="27.7"/>
			</g>
			<linearGradient id="SVGID_4_" gradientUnits="userSpaceOnUse" x1="394.2796" y1="200.1407" x2="417.0414" y2="200.1407">
				<stop  offset="4.527240e-03" style="stop-color:#4E8DA1"/>
				<stop  offset="0.2629" style="stop-color:#5090A4"/>
				<stop  offset="0.4722" style="stop-color:#589AAE"/>
				<stop  offset="0.6643" style="stop-color:#64ABBF"/>
				<stop  offset="0.8451" style="stop-color:#75C2D7"/>
				<stop  offset="1" style="stop-color:#88DCF2"/>
			</linearGradient>
			<rect x="394.3" y="183.7" class="st45" width="22.8" height="32.8"/>
		</g>
		<g>
			<g>
				<linearGradient id="SVGID_5_" gradientUnits="userSpaceOnUse" x1="374.3297" y1="192.3998" x2="374.3297" y2="149.293">
					<stop  offset="4.527240e-03" style="stop-color:#4E8DA1"/>
					<stop  offset="0.2629" style="stop-color:#5090A4"/>
					<stop  offset="0.4722" style="stop-color:#589AAE"/>
					<stop  offset="0.6643" style="stop-color:#64ABBF"/>
					<stop  offset="0.8451" style="stop-color:#75C2D7"/>
					<stop  offset="1" style="stop-color:#88DCF2"/>
				</linearGradient>
				<path class="st46" d="M373.6,184.8c-4.4,0.9-11.2-5.9-13.4-8.9c-1.5-2-2.8-5.1,0.2-6.9c2.1-1.2,4.1,0.7,5.5,2.3
					c-1.6-3.7-7.3-11-4.4-15.2c4-5.8,7.2,5.4,7.8,7.6c-1.1-3.9,2.5-13.8,7.4-13.6c8.2,0.4,1.3,11.9,0.1,15c3.6-0.9,6.6-8.5,11.8-4.6
					c3.8,2.8-0.8,6.9-3.1,8.8c3.3-1.4,3.9,2.3,3.3,4.6c-0.7,2.7-3.2,4.5-5.2,6.3c-1.4,1.2-8.6,6.8-9.4,3.4"/>
				<path class="st18" d="M378.7,175.4c0.2-0.2-0.3,0.2-0.3,0.3c-0.2,0.2-0.4,0.3-0.6,0.5c-0.5,0.4-1,0.7-1.6,1.1
					c-0.5,0.3-1.1,0.7-1.6,0.9c-0.1,0.1-0.3,0.1-0.5,0.2c-0.1-1.3-0.2-2.7-0.2-4.1c0.1,0,0.3,0,0.4-0.1c2.1-1,4.4-2,6.1-3.5
					c1.2-1.1-0.6-2.9-1.8-1.8c-1.3,1.1-3,1.9-4.7,2.7c0.2-3.2,0.7-6.3,1.7-9c0.6-1.6-1.9-2.3-2.5-0.7c-1,2.6-1.5,5.6-1.7,8.6
					c-0.1-0.1-0.2-0.2-0.2-0.3c-0.7-0.8-1.4-1.7-1.9-2.7c-0.8-1.4-3-0.1-2.2,1.3c0.7,1.1,1.5,2.2,2.3,3.2c0.6,0.7,1.2,1.2,1.9,1.7
					c0,1.4,0.1,2.8,0.2,4.1c-0.3-0.1-0.6-0.3-0.8-0.5c-1.2-0.7-2.3-1.5-3.2-2.5c-1.2-1.2-3,0.6-1.9,1.9c1,1,2.2,1.9,3.4,2.7
					c0.5,0.4,1.1,0.7,1.7,1c0.4,0.2,0.8,0.4,1.3,0.6c0.2,1,0.3,1.9,0.6,2.8c0.4,1.7,2.9,1,2.5-0.7c-0.2-0.7-0.3-1.4-0.4-2.1
					c1.1-0.3,2.1-1,3-1.6c1.2-0.8,2.6-1.6,3.4-2.8C382,175.4,379.7,174.1,378.7,175.4z"/>
			</g>
			<linearGradient id="SVGID_6_" gradientUnits="userSpaceOnUse" x1="365.9014" y1="214.2176" x2="382.0566" y2="181.2858">
				<stop  offset="0" style="stop-color:#F9AE3B"/>
				<stop  offset="0.164" style="stop-color:#F9B243"/>
				<stop  offset="0.4194" style="stop-color:#F8BE59"/>
				<stop  offset="0.7323" style="stop-color:#F6D17D"/>
				<stop  offset="1" style="stop-color:#F5E5A1"/>
			</linearGradient>
			<path class="st47" d="M390.8,200.1c0-4.6-1.9-8.8-5-11.8c1.3-0.3,2.3-1.5,2.3-2.9c0-1.7-1.4-3-3-3h-21.5c-1.7,0-3,1.4-3,3
				c0,1.4,1,2.6,2.3,2.9c-3.1,3-5,7.2-5,11.8c0,5.7,2.9,10.7,7.3,13.7c-0.6,0.1-1.1,0.7-1.1,1.4c0,0.8,0.6,1.4,1.4,1.4h18.1
				c0.8,0,1.4-0.6,1.4-1.4c0-0.8-0.6-1.4-1.4-1.4h-0.1C387.9,210.7,390.8,205.7,390.8,200.1z"/>
		</g>
		<g>
			<linearGradient id="SVGID_7_" gradientUnits="userSpaceOnUse" x1="310.6534" y1="227.1948" x2="341.7211" y2="187.4282">
				<stop  offset="4.527240e-03" style="stop-color:#4E8DA1"/>
				<stop  offset="0.2629" style="stop-color:#5090A4"/>
				<stop  offset="0.4722" style="stop-color:#589AAE"/>
				<stop  offset="0.6643" style="stop-color:#64ABBF"/>
				<stop  offset="0.8451" style="stop-color:#75C2D7"/>
				<stop  offset="1" style="stop-color:#88DCF2"/>
			</linearGradient>
			<path class="st48" d="M304.2,216.5h32.3c1,0,1.8-0.8,1.8-1.8l0,0c0-1-0.8-1.8-1.8-1.8h-32.3c-1,0-1.8,0.8-1.8,1.8l0,0
				C302.4,215.7,303.2,216.5,304.2,216.5z"/>
			<linearGradient id="SVGID_8_" gradientUnits="userSpaceOnUse" x1="299.6632" y1="218.6086" x2="330.7309" y2="178.8419">
				<stop  offset="4.527240e-03" style="stop-color:#4E8DA1"/>
				<stop  offset="0.2629" style="stop-color:#5090A4"/>
				<stop  offset="0.4722" style="stop-color:#589AAE"/>
				<stop  offset="0.6643" style="stop-color:#64ABBF"/>
				<stop  offset="0.8451" style="stop-color:#75C2D7"/>
				<stop  offset="1" style="stop-color:#88DCF2"/>
			</linearGradient>
			<path class="st49" d="M295.4,197.6c0,6.4,5.2,11.6,11.6,11.6c1,0,2-0.1,2.9-0.4c2.5,3.1,6.3,5.2,10.6,5.2
				c7.5,0,13.6-6.1,13.6-13.6v-15.5h-27.1v1.1C300.5,186.1,295.4,191.2,295.4,197.6z M297.3,197.6c0-5.3,4.3-9.6,9.6-9.6v12.4
				c0,2.4,0.6,4.7,1.8,6.7c-0.6,0.1-1.2,0.2-1.8,0.2C301.6,207.3,297.3,202.9,297.3,197.6z"/>
		</g>
		<g>
			<g>
				<g>
					<g>
						<polygon class="st14" points="316.6,426.5 312.2,426.5 356.9,222 361.3,223.2 						"/>
					</g>
					<g>
						<polygon class="st14" points="418.4,426.5 373.7,223.2 378.1,222 422.8,426.5 						"/>
					</g>
				</g>
				<g>
					<g>
						<polygon class="st14" points="110.9,426.5 106.5,426.5 151.3,222 155.7,223.2 						"/>
					</g>
					<g>
						<polygon class="st14" points="212.8,426.5 168,223.2 172.4,222 217.2,426.5 						"/>
					</g>
				</g>
			</g>
			<g>
				<path class="st50" d="M412,226.6c0,10.6-8.7,19.4-19.4,19.4H136.7c-5.3,0-10.2-2.2-13.7-5.7c-3.5-3.5-5.7-8.4-5.7-13.7H412z"/>
				<path class="st44" d="M104.6,227.8h320.2c3.1,0,5.6-2.5,5.6-5.6l0,0c0-3.1-2.5-5.6-5.6-5.6H104.6c-3.1,0-5.6,2.5-5.6,5.6l0,0
					C99,225.2,101.5,227.8,104.6,227.8z"/>
			</g>
		</g>
	</g>
	<g>
		<g>
			<g>
				<linearGradient id="SVGID_9_" gradientUnits="userSpaceOnUse" x1="239.0369" y1="198.1969" x2="267.2124" y2="198.1969">
					<stop  offset="4.527240e-03" style="stop-color:#4E8DA1"/>
					<stop  offset="0.2629" style="stop-color:#5090A4"/>
					<stop  offset="0.4722" style="stop-color:#589AAE"/>
					<stop  offset="0.6643" style="stop-color:#64ABBF"/>
					<stop  offset="0.8451" style="stop-color:#75C2D7"/>
					<stop  offset="1" style="stop-color:#88DCF2"/>
				</linearGradient>
				<path class="st51" d="M241.6,216.2l-2.6-1.9l25.3-33.5c0.5-0.7,1.5-0.8,2.2-0.3l0,0c0.7,0.5,0.8,1.5,0.3,2.2L241.6,216.2z"/>
				<linearGradient id="SVGID_10_" gradientUnits="userSpaceOnUse" x1="225.8679" y1="215.303" x2="275.3813" y2="215.303">
					<stop  offset="4.527240e-03" style="stop-color:#4E8DA1"/>
					<stop  offset="0.2629" style="stop-color:#5090A4"/>
					<stop  offset="0.4722" style="stop-color:#589AAE"/>
					<stop  offset="0.6643" style="stop-color:#64ABBF"/>
					<stop  offset="0.8451" style="stop-color:#75C2D7"/>
					<stop  offset="1" style="stop-color:#88DCF2"/>
				</linearGradient>
				<path class="st52" d="M273,214.1h-44.7c-1.3,0-2.4,1.1-2.4,2.4l0,0h49.5l0,0C275.4,215.2,274.3,214.1,273,214.1z"/>
			</g>
			<g>
				<g>
					<path class="st53" d="M194.8,349.3c-3.7,14.2-7.6,26.3-9.8,32.9c-1.1,3.3-1.1,6.8-0.2,10.1c2.3,8.3,2.6,16,3.7,21.9
						c0.6,3.1,1.4,5.7,2.9,7.7c4.4,5.5-10.1,7.5-15.7,5.1c-5.6-2.4-2.3-21.3-2.3-21.3s-7.9-11.3-0.2-18.1c0-0.2,0-0.5,0-0.7
						c-0.6-13.7-1.2-28-1.4-41.4c-0.4-32.5,1.4-59.7,9.4-61.2c-0.6-0.2-5.9-2-6.5-2.2c-11.8-3.7-19.6-9.8-21.5-19.6
						c0,0,47.7-4.1,50.6,16.3C206.5,297.9,200.9,326.3,194.8,349.3z"/>
					<path class="st53" d="M257.8,385.3c-5.4-5.6-12.7-12.9-16.7-27.5v0c0,0,0,0,0-0.1c-8.1-10.6-17-21.4-25.5-32.1
						c-21-26.4-39.7-52.2-39.1-72.6c0.1-3.6,1.6-6.9,4.1-9.2c2.4-2.3,5.7-3.8,9.3-3.8c7.9,0,14.9,4.7,17.9,12l25,60.8l16,38.9l0.1,0
						c7.8,6.6,12.4,11.1,15.7,16.9c1.7,3.1,3,6.6,4.2,11C270.7,386.8,263,390.7,257.8,385.3z"/>
					<path class="st17" d="M186.8,274.3h-59c-10.1,0-18.4-8.3-18.4-18.4l0,0c0-10.1,8.3-18.4,18.4-18.4h59
						c10.1,0,18.4,8.3,18.4,18.4l0,0C205.2,266,197,274.3,186.8,274.3z"/>
				</g>
				<g>
					<path class="st53" d="M167,100.1c-1.6-7.8-0.5-15.9,3.5-22.7c2.6-4.4,6-7.7,9.7-8.4c8-1.5,18.7-0.5,21.3,18.3
						c0.3,2.4,1.3,4.7,3.1,6.4c1.8,1.8,3,4.1-2,4.8c0.3,9-5.1,18.4-13.6,20.8c-4.5,1.3-9.9-1.2-14.4-5.1c-3.8-3.4-6.4-8-7.4-13
						L167,100.1z"/>
					<path class="st17" d="M195,89.2c0.3,1.8,1,3.1,1.7,3c0.7-0.1,1-1.6,0.8-3.4c-0.3-1.8-1-3.1-1.7-3
						C195.1,85.9,194.7,87.4,195,89.2z"/>
					<g>
						<path class="st17" d="M190,84.4c0.3,0,0.5-0.2,0.6-0.5c1.4-4.1,5.1-3.1,5.3-3c0.4,0.1,0.7-0.1,0.8-0.5
							c0.1-0.4-0.1-0.7-0.5-0.8c-1.8-0.5-5.5-0.3-6.9,3.9c-0.1,0.4,0.1,0.7,0.4,0.9C189.8,84.4,189.9,84.4,190,84.4z"/>
					</g>
					<g>
						<path class="st17" d="M200,102.1c-0.1-0.2-0.4-0.4-0.7-0.3c-4.3,0.5-5-3.3-5-3.4c-0.1-0.4-0.4-0.6-0.8-0.6
							c-0.4,0.1-0.6,0.4-0.6,0.8c0.3,1.8,2.1,5.1,6.5,4.6c0.4,0,0.6-0.4,0.6-0.8C200.1,102.3,200.1,102.2,200,102.1z"/>
					</g>
				</g>
				<g>
					<path class="st53" d="M171,108.4c0,0-3.7,21.6-3.8,21.5l17.3,1.5c0,0-1.2-10.4,2.6-17.3L171,108.4z"/>
					<linearGradient id="SVGID_11_" gradientUnits="userSpaceOnUse" x1="148.7807" y1="177.1603" x2="187.7358" y2="183.1843">
						<stop  offset="0" style="stop-color:#F9AE3B"/>
						<stop  offset="0.164" style="stop-color:#F9B243"/>
						<stop  offset="0.4194" style="stop-color:#F8BE59"/>
						<stop  offset="0.7323" style="stop-color:#F6D17D"/>
						<stop  offset="1" style="stop-color:#F5E5A1"/>
					</linearGradient>
					<path class="st54" d="M211.3,156.1c-1.5,1.1-7.7,4.3-12.3,6.5c-3.1,1.5-4.8,4.8-4.3,8.2c0,0.1,0,0.2,0,0.2
						c0,0.9-0.1,1.9-0.2,2.8v0c-0.2,2.3-0.7,4.5-1.3,6.7c-2.9,10-11.4,10-11.4,10s-14.4,37.7-15,47h-39.7
						c21.8-42.9,12.3-67,18.5-92.3c2.3-9.3,10-16.2,19.1-17.4c1.2-0.1,2.2-1.2,2.3-2.4v0l0.7-7.6c0.1-0.8,0.9-1.4,1.7-1.1l0.1,0h0
						l15,5.7l0.2,0.1c3.9,1.4,4.9,5.1,4.9,5.1l1.6,3.6c0.8,0.2,1.5,0.5,2.3,0.8C203.5,136,210.6,145.2,211.3,156.1z"/>
				</g>
				<g>
					<linearGradient id="SVGID_12_" gradientUnits="userSpaceOnUse" x1="158.2956" y1="96.6982" x2="224.382" y2="41.9072">
						<stop  offset="1.923080e-03" style="stop-color:#3A1081"/>
						<stop  offset="0.3867" style="stop-color:#502B8F"/>
						<stop  offset="0.7344" style="stop-color:#5E3B98"/>
						<stop  offset="0.9981" style="stop-color:#63419B"/>
					</linearGradient>
					<path class="st55" d="M198,72.4c-0.7-5.3-9-10.5-13.7-11.9c-14-4-23.3,0.5-29,6c-5,4.8-8,11.2-8.8,18.1
						c-0.4,3.1-0.8,7.2-1.2,11.1c-1.4,16.5,16.9,28,30.7,18.8c4.1-2.7,6.7-6.7,6.1-12.5l0,0c0,0-8.3-0.8-8.2-6.1
						c0-1.8,0-4.3,1.8-5.1c1.4-0.6,4.6,0.2,5.1,1.6c0,0,0,0,0,0c-1-5.1,1.7-10,6.5-12.1c0.3-0.1,0.7-0.3,1-0.5
						c1.9-0.9,3.6-1.8,5.3-3.1C195,75.8,198,72.4,198,72.4z"/>
				</g>
				<g>
					<linearGradient id="SVGID_13_" gradientUnits="userSpaceOnUse" x1="171.9793" y1="113.8758" x2="238.0653" y2="59.0851">
						<stop  offset="1.923080e-03" style="stop-color:#3A1081"/>
						<stop  offset="0.3867" style="stop-color:#502B8F"/>
						<stop  offset="0.7344" style="stop-color:#5E3B98"/>
						<stop  offset="0.9981" style="stop-color:#63419B"/>
					</linearGradient>
					<path class="st56" d="M177,87.1c0.4,0.5,0.6,1.1,1,1.7c0.6,0.8,1.5,1.4,2.1,2.2c1,1.2,1.5,3.4,1.8,4.9c0.5,3-0.1,5.9,0.8,8.8
						c0.5,1.8,0.2,3.8,1.3,5.5c1,1.6,2.5,1.6,4,2.5c3,1.7,0.9,5.6,1.9,8.2c0.6,1.7,2.5,2.2,4.1,2.1c3.3-0.2,4.8-3.1,7.2-4.9
						c-1.7,1.1-3.3,2.2-5.5,1.9c-2.6-0.3-2.9-1.5-2.9-3.9c0-1.9,0.4-4.4-0.4-6.2c-0.9-2-2.8-2.3-4.3-3.7c-2.7-2.5-1.5-7.2-1.7-10.5
						c-0.1-1.8-0.5-3.6-0.8-5.3c-0.3-1.8-0.9-4-2-5.5c-1.2-1.6-4-3.6-6-3.8c-2.3-0.2-3.8,2.5-2.5,4.4"/>
				</g>
				<path class="st17" d="M175.8,427c-5.6-2.4-2.3-21.3-2.3-21.3s-7.9-11.3-0.2-18.1c0-0.2,0,0.2,0,0c5.6-0.7,11.1,0.6,11.9,12.9
					c0.1,2.5,0.4,5,1,7.4c0.6,2.4,1.4,5.1,2.4,6.3c0.6,3.1,1.4,5.7,2.9,7.7C195.9,427.5,181.4,429.4,175.8,427z"/>
				<path class="st17" d="M257.8,385.3c-5.4-5.6-12.7-12.9-16.7-27.5v0c0.8-1.2,7.7-6.2,7.7-6.2s3.4,2.7,3.7,3
					c5.3,4.9,10.3,9.9,12.1,13.9c1.7,3.1,3,6.6,4.2,11C270.7,386.8,263,390.7,257.8,385.3z"/>
				<g>
					<path class="st13" d="M147.6,83.7l-2.6-1.9l25.3-33.5c0.5-0.7,1.5-0.8,2.2-0.3l0,0c0.7,0.5,0.8,1.5,0.3,2.2L147.6,83.7z"/>
					<path class="st44" d="M145.6,77.6l-1.6-2.8l36.4-21c0.8-0.4,1.7-0.2,2.2,0.6l0,0c0.4,0.8,0.2,1.7-0.6,2.2L145.6,77.6z"/>
					<g>
						<g>
							<path class="st17" d="M157.7,60.6l-0.2-0.3C157.5,60.3,157.6,60.4,157.7,60.6z"/>
						</g>
						<g>
							<linearGradient id="SVGID_14_" gradientUnits="userSpaceOnUse" x1="133.8491" y1="108.541" x2="229.2794" y2="25.3868">
								<stop  offset="1.923080e-03" style="stop-color:#3A1081"/>
								<stop  offset="0.3867" style="stop-color:#502B8F"/>
								<stop  offset="0.7344" style="stop-color:#5E3B98"/>
								<stop  offset="0.9981" style="stop-color:#63419B"/>
							</linearGradient>
							<path class="st57" d="M161.1,65.7c0,0-2.2-9.2-16.1-9.1c-3.5,0-7.5,1.2-10.8,2c-5,1.3-8.7,3-12.4,6.7
								c-5.3,5.2-8.4,12.3-7.3,19.8c0.9,5.6,6.2,10.3,9.9,14.3c3.7,3.9,4.4,9.6,3.1,14.7c-1.2,4.4-5.6,7.2-9,9.8
								c-2.7,2-10.2,8.1-6.7,12c3.3,3.5,10.1,2.8,10.2,9c0.1,2.7-1.4,5.6-4.4,5.9c-2.1,0.2-3.7-0.4-4.4-2.5c-2.5,1.1-1.3,5.5-0.1,7
								c3.5,4.2,10.1,3.8,15,3.3c8.8-0.8,20.3-6.6,24.9-14.3c3.4-5.6,5.6-11.7,4.6-18.3c-0.7-5-3.7-9-6.9-12.6
								c-1.2-1.4-2.4-2.4-2.9-4.2c-0.7-2.4-0.9-5-0.8-7.6c0.3-3.5,0.9-6,3.1-8.7c2.4-2.8,5.3-5.2,7.7-8c2.7-3.2,4-6.5,4.6-10.5
								c0.4-2.7,0.1-4.9-1-7.4C161.5,66.5,161.3,66.1,161.1,65.7z"/>
						</g>
					</g>
				</g>
				<path class="st53" d="M258.7,207.7c-0.8,8.4-12.3,6.6-12.3,6.6L213.7,230c-6.3,3.1-13.7-1.1-14.3-8.1l-4.5-51c0,0.1,0,0.1,0,0.1
					c0,0,0-0.1,0-0.2c-0.5-3.4,1.3-6.7,4.3-8.2c4.5-2.2,10.8-5.4,12.3-6.5c0,0.2,0,0.4,0,0.6c0,0.4,0,0.7,0,1.1c0,2.7,0,5.5,0.1,8.2
					c0.1,9,0.7,18.1,1.9,27l2.5,19.3l25.2-6.3l2.3-0.6c-0.3-1.4-0.3-2.5-0.2-3.4c0.2-1.4,1.4-2.4,2.7-2.3l4,0.1
					c1.8-2,3.7-2.8,5.6-2.7C258.5,197.1,259.1,201.4,258.7,207.7z"/>
			</g>
		</g>
		<g>
			<g>
				<g>
					<polygon class="st15" points="100.8,435.2 96.4,435.2 141.1,271.7 145.5,272.9 					"/>
				</g>
				<g>
					<polygon class="st15" points="239.9,435.2 195.2,272.9 199.6,271.7 244.3,435.2 					"/>
				</g>
				<g>
					<rect x="168.7" y="272.3" class="st15" width="4.6" height="162.9"/>
				</g>
				<polyline class="st58" points="130,321.4 171,344.2 209.2,316.3 				"/>
				<polyline class="st58" points="122,351.6 171,311.2 216.9,345.1 				"/>
			</g>
			<linearGradient id="SVGID_15_" gradientUnits="userSpaceOnUse" x1="196.5802" y1="266.1558" x2="196.5802" y2="225.0271">
				<stop  offset="1.923080e-03" style="stop-color:#3A1081"/>
				<stop  offset="0.3867" style="stop-color:#502B8F"/>
				<stop  offset="0.7344" style="stop-color:#5E3B98"/>
				<stop  offset="0.9981" style="stop-color:#63419B"/>
			</linearGradient>
			<rect x="192.8" y="234" class="st59" width="7.6" height="37.6"/>
			<linearGradient id="SVGID_16_" gradientUnits="userSpaceOnUse" x1="178.2062" y1="243.8914" x2="178.8275" y2="205.9888">
				<stop  offset="4.527240e-03" style="stop-color:#4E8DA1"/>
				<stop  offset="0.2667" style="stop-color:#64ACC0"/>
				<stop  offset="0.5537" style="stop-color:#78C6DC"/>
				<stop  offset="0.8076" style="stop-color:#84D6EC"/>
				<stop  offset="1" style="stop-color:#88DCF2"/>
			</linearGradient>
			<path class="st60" d="M142.6,238.3h65.8c3.3,0,5.9-2.6,5.9-5.9l0,0c0-3.3-2.6-5.9-5.9-5.9h-65.8V238.3z"/>
			<linearGradient id="SVGID_17_" gradientUnits="userSpaceOnUse" x1="129.4096" y1="288.6458" x2="208.0393" y2="169.1101">
				<stop  offset="4.527240e-03" style="stop-color:#4E8DA1"/>
				<stop  offset="0.2667" style="stop-color:#64ACC0"/>
				<stop  offset="0.5537" style="stop-color:#78C6DC"/>
				<stop  offset="0.8076" style="stop-color:#84D6EC"/>
				<stop  offset="1" style="stop-color:#88DCF2"/>
			</linearGradient>
			<path class="st61" d="M192.7,257h-12.3c-9.1,0-16.6-7-17.4-16l-4.4-54.3c-1.3-15.9-14.2-28.4-30.1-29.2h0
				c-15.8-0.8-29.7,10.2-32.7,25.6L88.4,240c-4.6,23.6,3.8,47.8,26,57.2c6.2,2.6,13,4.1,20.1,4.1h88.7c3.8,0,6.9-3.1,6.9-6.9l0,0
				C230.1,273.7,213.4,257,192.7,257z"/>
		</g>
	</g>
</g>
<g id="DESIGNED_BY_FREEPIK">
</g>
</svg>
