<?xml version="1.0" encoding="utf-8"?>
<!-- Generator: Adobe Illustrator 24.0.1, SVG Export Plug-In . SVG Version: 6.00 Build 0)  -->
<svg version="1.1" xmlns="http://www.w3.org/2000/svg" xmlns:xlink="http://www.w3.org/1999/xlink" x="0px" y="0px"
	 viewBox="0 0 500 500" style="enable-background:new 0 0 500 500;" xml:space="preserve">
<style type="text/css">
	.st0{fill:#EBEBEB;}
	.st1{fill:#F0F0F0;}
	.st2{fill:#F5F5F5;}
	.st3{fill:#E6E6E6;}
	.st4{fill:#FFFFFF;}
	.st5{fill:#E0E0E0;}
	.st6{fill:#FAFAFA;}
	.st7{display:none;}
	.st8{display:inline;}
	.st9{fill:#407BFF;}
	.st10{opacity:0.9;fill:#FFFFFF;}
	.st11{opacity:0.3;fill:#FFFFFF;}
	.st12{fill:#263238;}
	.st13{opacity:0.4;fill:#407BFF;}
	.st14{opacity:0.1;fill:#407BFF;}
	.st15{opacity:0.4;fill:#FFFFFF;}
	.st16{opacity:0.3;}
	.st17{opacity:0.6;fill:#407BFF;}
	.st18{fill:#FF5652;}
	.st19{fill:#FF8B7B;}
	.st20{opacity:0.2;}
	.st21{opacity:0.5;fill:#FFFFFF;}
	.st22{opacity:0.7;fill:#FFFFFF;}
</style>
<g id="Background_Complete">
	<g>
		<g>
			<rect y="382.4" class="st0" width="500" height="0.3"/>
			<path class="st0" d="M237,337.8H43.9c-3.1,0-5.7-2.6-5.7-5.7V60.7c0-3.1,2.6-5.7,5.7-5.7H237c3.1,0,5.7,2.6,5.7,5.7v271.4
				C242.7,335.2,240.2,337.8,237,337.8z M43.9,55.2c-3,0-5.5,2.4-5.5,5.5v271.4c0,3,2.4,5.5,5.5,5.5H237c3,0,5.5-2.4,5.5-5.5V60.7
				c0-3-2.4-5.5-5.5-5.5H43.9z"/>
			<path class="st0" d="M453.3,337.8H260.2c-3.1,0-5.7-2.6-5.7-5.7V60.7c0-3.1,2.6-5.7,5.7-5.7h193.1c3.1,0,5.7,2.6,5.7,5.7v271.4
				C459,335.2,456.5,337.8,453.3,337.8z M260.2,55.2c-3,0-5.5,2.4-5.5,5.5v271.4c0,3,2.4,5.5,5.5,5.5h193.1c3,0,5.5-2.4,5.5-5.5
				V60.7c0-3-2.4-5.5-5.5-5.5H260.2z"/>
		</g>
		<g>
			<rect x="174.4" y="391.9" class="st0" width="26" height="0.3"/>
			<rect x="52.5" y="389.2" class="st0" width="54.1" height="0.3"/>
			<rect x="147.1" y="401.2" class="st0" width="26.3" height="0.3"/>
			<rect x="258.2" y="399.5" class="st0" width="38.8" height="0.3"/>
			<rect x="306" y="399.5" class="st0" width="10.7" height="0.3"/>
			<rect x="395.3" y="395.3" class="st0" width="54.6" height="0.3"/>
		</g>
	</g>
	<g>
		<g>
			<g>
				
					<rect x="381.1" y="248.1" transform="matrix(-1 -1.224647e-16 1.224647e-16 -1 807.7711 621.5772)" class="st1" width="45.7" height="125.5"/>
				
					<rect x="181.7" y="373.5" transform="matrix(-1 -1.224647e-16 1.224647e-16 -1 599.6848 755.9232)" class="st1" width="236.2" height="8.9"/>
				<rect x="173" y="248.1" class="st2" width="208.1" height="125.5"/>
				<rect x="173" y="256.5" class="st1" width="208.9" height="45.9"/>
				<rect x="173" y="310.8" class="st1" width="208.9" height="45.9"/>
				
					<rect x="381.1" y="256.5" transform="matrix(-1 -1.224647e-16 1.224647e-16 -1 770.0168 559.0173)" class="st3" width="7.9" height="45.9"/>
				
					<rect x="381.1" y="310.8" transform="matrix(-1 -1.224647e-16 1.224647e-16 -1 770.0168 667.6205)" class="st3" width="7.9" height="45.9"/>
			</g>
			
				<rect x="166.9" y="240.3" transform="matrix(-1 -1.224647e-16 1.224647e-16 -1 547.9498 488.3842)" class="st1" width="214.2" height="7.7"/>
			<rect x="381.1" y="240.3" class="st3" width="52" height="7.7"/>
		</g>
		<g>
			
				<rect x="328.1" y="81.7" transform="matrix(-1 -1.224647e-16 1.224647e-16 -1 763.7179 298.4117)" class="st1" width="107.4" height="135"/>
			
				<rect x="304.4" y="81.7" transform="matrix(-1 -1.224647e-16 1.224647e-16 -1 735.8855 298.4117)" class="st2" width="127" height="135"/>
			
				<rect x="311.1" y="96.3" transform="matrix(6.123234e-17 -1 1 6.123234e-17 218.737 517.1486)" class="st4" width="113.8" height="105.7"/>
			<g>
				<path class="st3" d="M379.7,161.5l20.2-9.4v-5.9l-20.2-9.4v7.1l12.3,5.3l-12.3,5.3V161.5z"/>
				<path class="st3" d="M366.5,134.1h-3.7l6.5,30.1h3.7L366.5,134.1z"/>
				<path class="st3" d="M356.2,154.5l-12.3-5.3l12.3-5.3v-7.1l-20.2,9.4v5.9l20.2,9.4V154.5z"/>
			</g>
		</g>
		<g>
			
				<rect x="117.2" y="153.2" transform="matrix(-1 -1.224647e-16 1.224647e-16 -1 241.4702 535.6206)" class="st1" width="7" height="229.2"/>
			<path class="st1" d="M115.8,380.8l-0.2-1c0.1,0,1.9-0.4,3.3-2.9c1.8-3.2,2.9-10.1-2.1-24.6c-7.8-22.3-3.2-40.3,6.2-76.2
				c1.6-6.2,3.5-13.3,5.4-21c7.2-28.7,0.5-46.4-4.8-60.7c-4.1-11.1-7.4-19.9-3.2-30l0.9,0.4c-4,9.8-0.8,18.4,3.2,29.3
				c5.4,14.4,12.1,32.4,4.8,61.3c-1.9,7.7-3.8,14.7-5.4,21c-9.3,35.7-13.9,53.6-6.2,75.6c5.2,14.9,4,22.1,2,25.5
				C118.1,380.3,115.8,380.8,115.8,380.8z"/>
			<polygon class="st1" points="108,382.4 133.5,382.4 126.4,378.2 115.1,378.2 			"/>
			<polygon class="st2" points="70.3,182.4 171.2,182.4 160.1,97.7 81.4,97.7 			"/>
		</g>
		<g>
			<polygon class="st1" points="219.9,196.4 273.7,196.4 266.6,240.3 227,240.3 			"/>
			<g>
				<path class="st5" d="M241.5,210.7c14.7-5.3,25.9-13.3,13.3-29.4c-12.6-16.1-32.1-16.1-45.2-8.9c-16.7,9.1-13.4,35.5-13.4,35.5
					S226.8,216,241.5,210.7z"/>
				<path class="st3" d="M255.8,196c-11.2-7.6-19.2-16.5-6.2-25.8c13-9.3,29.1-4.6,38.8,4.1c12.3,11.1,5.2,30.5,5.2,30.5
					S267,203.6,255.8,196z"/>
				<path class="st1" d="M236,176.6c13.1-0.8,24.2-4.2,17.9-18.5c-6.2-14.2-22-18.2-34.3-15.8c-15.7,3.1-19.4,22.8-19.4,22.8
					S222.9,177.4,236,176.6z"/>
				<path class="st0" d="M252.5,168.2c-10.9-3.5-19.5-8.8-11.2-19.5c8.3-10.7,22.5-10.6,32.4-5.9c12.6,6,11.5,23.5,11.5,23.5
					S263.4,171.7,252.5,168.2z"/>
				<path class="st2" d="M232,150c10.9,3.6,20.9,4.4,20.5-9.2c-0.4-13.5-11.9-21.8-22.7-23.9c-13.7-2.6-23.1,12.2-23.1,12.2
					S221.1,146.4,232,150z"/>
				<path class="st6" d="M259.7,144.2c-7.8,0.5-14.6-0.6-12-9.5c2.6-8.9,11.6-12.4,19-11.9c9.5,0.6,13.2,11.9,13.2,11.9
					S267.5,143.6,259.7,144.2z"/>
			</g>
		</g>
	</g>
</g>
<g id="Background_Simple" class="st7">
	<g class="st8">
		<path class="st9" d="M282.9,296.6c-42.3,0.6-104.8,32.9-130.8-7.7c-21.8-34.1,3.4-67.5-37-92.6c-29.4-18.4-77.1-50.5-32.8-83.9
			C117,86.3,171.2,79.1,213.2,85c33,4.7,101.5,24.3,109.8,58.9c9.3,38.9-51.1,71,13.5,85.6c38.9,8.8,85.7,31.4,58.3,77.9
			c-10.8,18.4-26.3,15.2-42.7,7.9C327.9,304.7,312,296.2,282.9,296.6z"/>
		<path class="st10" d="M282.9,296.6c-42.3,0.6-104.8,32.9-130.8-7.7c-21.8-34.1,3.4-67.5-37-92.6c-29.4-18.4-77.1-50.5-32.8-83.9
			C117,86.3,171.2,79.1,213.2,85c33,4.7,101.5,24.3,109.8,58.9c9.3,38.9-51.1,71,13.5,85.6c38.9,8.8,85.7,31.4,58.3,77.9
			c-10.8,18.4-26.3,15.2-42.7,7.9C327.9,304.7,312,296.2,282.9,296.6z"/>
	</g>
</g>
<g id="Shadow_1_">
	<ellipse id="_x3C_Path_x3E__327_" class="st2" cx="250" cy="416.2" rx="193.9" ry="11.3"/>
</g>
<g id="Desk">
	<g>
		<g>
			<rect x="79.5" y="251.1" class="st9" width="339.8" height="12.2"/>
			<rect x="79.5" y="251.1" class="st11" width="90.9" height="12.2"/>
			<polygon class="st9" points="171.9,263.3 164,263.3 168.1,416.1 171.9,416.1 175.7,416.1 179.8,263.3 			"/>
			<polygon class="st11" points="168.1,416.1 171.9,416.1 171.9,266.6 164.1,268 			"/>
			<polygon class="st9" points="96.9,263.3 89,263.3 93.2,416.1 96.9,416.1 100.7,416.1 104.8,263.3 			"/>
			<polygon class="st11" points="93.2,416.1 96.9,416.1 96.9,266.6 89.1,268 			"/>
			<polygon class="st9" points="401.9,263.3 393.9,263.3 398.1,416.1 401.9,416.1 405.6,416.1 409.8,263.3 			"/>
			<polygon class="st11" points="398.1,416.1 401.9,416.1 401.9,266.6 394.1,268 			"/>
			<polygon class="st9" points="326.9,263.3 319,263.3 323.1,416.1 326.9,416.1 330.6,416.1 334.8,263.3 			"/>
			<polygon class="st11" points="323.1,416.1 326.9,416.1 326.9,266.6 319.1,268 			"/>
		</g>
		<g>
			<path class="st12" d="M240.8,185.8h-80.8c-2.9,0-4.8,2.4-4.2,5.3l10.8,51.3c0.6,2.9,3.5,5.3,6.4,5.3h80.8c2.9,0,4.8-2.4,4.2-5.3
				l-10.8-51.3C246.6,188.2,243.7,185.8,240.8,185.8z"/>
			<path class="st4" d="M173.7,244.8c-1.9,0-3.9-1.7-4.3-3.6l-10.8-51.4c-0.2-0.8,0-1.5,0.4-2c0.4-0.5,1-0.7,1.7-0.7h80.8
				c1.9,0,3.9,1.7,4.3,3.6l10.8,51.3c0.2,0.8,0,1.5-0.4,2c-0.4,0.5-1,0.7-1.7,0.7H173.7z"/>
			<path class="st13" d="M234.7,240.7L224.5,192c-0.3-1.2,0.7-2.4,1.9-2.4h13.1c0.9,0,1.7,0.7,1.9,1.6l10.2,48.7
				c0.3,1.2-0.7,2.4-1.9,2.4h-13.1C235.7,242.3,234.9,241.6,234.7,240.7z"/>
			<g>
				<polygon class="st9" points="165.3,193.9 164.9,191.8 181.1,191.8 181.5,193.9 				"/>
				<polygon class="st0" points="172.8,199.1 172.4,197 200.8,197 201.2,199.1 				"/>
				<polygon class="st0" points="174.3,204.3 173.9,202.2 205.7,202.2 206.1,204.3 				"/>
				<polygon class="st0" points="175.8,209.6 175.3,207.5 201,207.5 201.4,209.6 				"/>
			</g>
			<g>
				<polygon class="st9" points="170.2,218.1 169.8,216 180,216 180.5,218.1 				"/>
				<polygon class="st0" points="177.7,223.3 177.3,221.2 189.8,221.2 190.2,223.3 				"/>
				<polygon class="st0" points="193.2,223.3 192.8,221.2 205.2,221.2 205.7,223.3 				"/>
				<polygon class="st0" points="179.2,228.5 178.8,226.4 221,226.4 221.4,228.5 				"/>
				<polygon class="st0" points="180.7,233.8 180.3,231.7 212.4,231.7 212.9,233.8 				"/>
			</g>
			<path class="st12" d="M278.5,247.4H172.2c-2.9,0-4.8,1.6-4.2,3.7h116.9C284.3,249.1,281.4,247.4,278.5,247.4z"/>
		</g>
		<g>
			<path class="st14" d="M137.2,172.8L127,124.2c-0.3-1.2,0.7-2.4,1.9-2.4h82.6c0.9,0,1.7,0.7,1.9,1.6l10.2,48.7
				c0.3,1.2-0.7,2.4-1.9,2.4h-82.6C138.2,174.4,137.4,173.8,137.2,172.8z"/>
			<g>
				<g>
					<g>
						<polygon class="st9" points="166.6,123.4 149.2,123.4 148.8,121.5 166.2,121.5 						"/>
						<polygon class="st13" points="163.7,126.4 156.8,126.4 156.4,124.5 163.4,124.5 						"/>
						<polygon class="st13" points="175.3,126.4 164.6,126.4 164.2,124.5 174.9,124.5 						"/>
						<polygon class="st13" points="180,129.4 157.4,129.4 157,127.5 179.6,127.5 						"/>
						<polygon class="st13" points="177.1,132.3 158,132.3 157.6,130.5 176.7,130.5 						"/>
					</g>
					<polygon class="st13" points="189.8,163.9 177.6,163.9 178,165.8 190.2,165.8 					"/>
					<g>
						<polygon class="st9" points="174.6,159.9 156.8,159.9 156.4,158 174.2,158 						"/>
						<polygon class="st13" points="181.8,166.9 165.2,166.9 165.6,168.8 182.2,168.8 						"/>
						<polygon class="st13" points="176.8,163.9 164.6,163.9 165,165.8 177.2,165.8 						"/>
						<polygon class="st13" points="188.3,161 164,161 164.4,162.8 188.7,162.8 						"/>
					</g>
					<g>
						<polygon class="st9" points="166,109.5 146.3,109.5 145.9,107.7 165.6,107.7 						"/>
						<polygon class="st13" points="175.6,116.6 154,116.6 154.4,118.5 176,118.5 						"/>
						<polygon class="st13" points="171.3,113.6 153.4,113.6 153.8,115.5 171.7,115.5 						"/>
						<polygon class="st13" points="172.5,110.6 152.8,110.6 153.2,112.5 172.9,112.5 						"/>
					</g>
					<g>
						<polygon class="st9" points="165.7,137.2 152.1,137.2 151.7,135.3 165.3,135.3 						"/>
						<polygon class="st13" points="187.2,144.2 160.5,144.2 160.9,146.1 187.5,146.1 						"/>
						<polygon class="st13" points="170.9,141.3 159.9,141.3 160.3,143.1 171.3,143.1 						"/>
						<polygon class="st13" points="182.9,141.3 171.9,141.3 172.3,143.1 183.3,143.1 						"/>
						<polygon class="st13" points="183.6,138.3 159.3,138.3 159.7,140.1 184,140.1 						"/>
						<polygon class="st13" points="183.5,153.2 162.4,153.2 162.8,155 183.9,155 						"/>
						<polygon class="st13" points="167.9,150.2 161.8,150.2 162.1,152 168.3,152 						"/>
						<polygon class="st13" points="177.5,150.2 168.8,150.2 169.1,152 177.9,152 						"/>
						<polygon class="st13" points="185.4,147.2 161.1,147.2 161.5,149.1 185.8,149.1 						"/>
					</g>
				</g>
				<g>
					<g>
						<polygon class="st13" points="204.6,146.7 195.9,146.7 195.5,144.8 204.2,144.8 						"/>
						<polygon class="st13" points="219.1,146.7 205.7,146.7 205.3,144.8 218.7,144.8 						"/>
						<polygon class="st13" points="224.8,149.7 196.5,149.7 196.1,147.8 224.4,147.8 						"/>
						<polygon class="st13" points="221,152.7 197.1,152.7 196.7,150.8 220.7,150.8 						"/>
					</g>
					<g>
						<polygon class="st13" points="231.7,134.9 204.7,134.9 205.1,136.7 232.1,136.7 						"/>
						<polygon class="st13" points="226.5,131.9 204,131.9 204.4,133.8 226.9,133.8 						"/>
						<polygon class="st9" points="222.4,128.9 197.7,128.9 198.1,130.8 222.8,130.8 						"/>
					</g>
					<g>
						<polygon class="st13" points="233,164.6 199.6,164.6 200,166.4 233.4,166.4 						"/>
						<polygon class="st13" points="212.8,161.6 199,161.6 199.4,163.5 213.2,163.5 						"/>
						<polygon class="st13" points="227.8,161.6 214,161.6 214.4,163.5 228.2,163.5 						"/>
						<polygon class="st13" points="228.8,158.6 198.4,158.6 198.8,160.5 229.2,160.5 						"/>
						<polygon class="st13" points="228,173.5 201.5,173.5 201.9,175.3 228.4,175.3 						"/>
						<polygon class="st13" points="208.6,170.5 200.9,170.5 201.2,172.4 208.9,172.4 						"/>
						<polygon class="st13" points="220.6,170.5 209.6,170.5 210,172.4 221,172.4 						"/>
						<polygon class="st13" points="230.7,167.5 200.2,167.5 200.6,169.4 231.1,169.4 						"/>
					</g>
				</g>
				<g>
					<polygon class="st13" points="149.6,175.8 128.9,175.8 129.3,177.7 150,177.7 					"/>
					<polygon class="st13" points="143.5,172.8 128.2,172.8 128.6,174.7 143.9,174.7 					"/>
					<polygon class="st13" points="159.8,172.8 144.5,172.8 144.9,174.7 160.2,174.7 					"/>
					<polygon class="st13" points="158.1,169.8 127.6,169.8 128,171.7 158.5,171.7 					"/>
				</g>
			</g>
		</g>
		<g>
			<polygon class="st9" points="391,231.7 378.1,231.7 379.6,251.1 389.5,251.1 			"/>
			<polygon class="st15" points="391,231.7 378.1,231.7 379.6,251.1 389.5,251.1 			"/>
		</g>
		<g>
			<polygon class="st12" points="111.1,218.2 129.6,218.2 123.3,251.1 104.8,251.1 			"/>
			<polygon class="st9" points="134.6,209.4 108.6,209.4 115.9,251.1 141.9,251.1 			"/>
			<g>
				<polygon class="st9" points="107,209.4 108.6,209.4 115.9,251.1 114.3,251.1 				"/>
				<polygon class="st16" points="107,209.4 108.6,209.4 115.9,251.1 114.3,251.1 				"/>
			</g>
			<polygon class="st4" points="119.6,246.6 113.9,213.8 130.9,213.8 136.6,246.6 			"/>
			<polygon class="st17" points="135.8,246.6 130.1,213.8 130.9,213.8 136.6,246.6 			"/>
		</g>
	</g>
</g>
<g id="Character_1_">
	<g>
		<g>
			<path class="st12" d="M263.8,156c0.4,0.8,0.2,1.6-0.3,1.9c-0.5,0.2-1.2-0.2-1.6-1c-0.4-0.8-0.2-1.6,0.3-1.9
				C262.7,154.7,263.4,155.2,263.8,156z"/>
			<path class="st18" d="M264.1,157.6c0,0,0.3,5.5-0.7,8.6c2,0.7,4.2-1.1,4.2-1.1L264.1,157.6z"/>
			<path class="st12" d="M263.9,149.4c-0.1,0.1-0.2,0.1-0.3,0.1c-2.3,0.1-3.3,1.7-3.3,1.8c-0.1,0.2-0.5,0.3-0.7,0.2
				c-0.2-0.1-0.3-0.5-0.2-0.7c0.1-0.1,1.3-2.1,4.1-2.3c0.3,0,0.5,0.2,0.5,0.5C264.1,149.1,264,149.3,263.9,149.4z"/>
			<path class="st19" d="M293.2,154.8c3.1,10.7,6.5,19,10.8,23.7c0,0,0.1,8.4-14.3,12.4c-15.8,4.4-9.7-5.7-9.7-5.7
				c8-4.5,7.2-11.2,1.2-13.7L293.2,154.8z"/>
			<path class="st12" d="M307.3,176.5c-0.3-3.9-0.6-8.4-3.1-8.5c-2.7-0.1-18.1,6.8-21.3,11.6c-3.3,4.9,3.1,9.6,3.1,9.6L307.3,176.5z
				"/>
			<g>
				<path class="st19" d="M275.8,237l-13.3-0.4l0.2,11.1c0,0,11.6-1.2,12.1-4.2L275.8,237z"/>
				<polygon class="st19" points="255.5,242 254.1,247.7 262.7,247.7 262.5,236.6 				"/>
				<g>
					<path class="st9" d="M329.2,190.7l-0.3,2.9c-0.1,0.9-0.2,1.8-0.3,2.7c-0.2,1.8-0.5,3.6-0.8,5.4c-0.6,3.6-1.4,7.2-2.3,10.8
						c-0.9,3.6-2,7.2-3.3,10.9c-0.7,1.8-1.4,3.7-2.3,5.5c-0.9,1.9-1.8,3.7-3,5.6c-0.3,0.5-0.6,1-0.9,1.4c-0.3,0.5-0.7,1-1,1.5
						c-0.4,0.5-0.7,1-1.2,1.5l-0.7,0.7c-0.2,0.2-0.4,0.5-0.7,0.8c-2.3,2.3-4.7,3.7-6.9,4.7c-4.5,2-8.5,2.7-12.4,3.1
						c-2,0.2-3.9,0.3-5.8,0.4c-1.9,0.1-3.8,0-5.6-0.1c-1.9-0.1-3.7-0.3-5.5-0.5c-1.9-0.2-3.6-0.5-5.6-0.9l0.3-10.4
						c6.4-1.3,13.1-2.6,18.9-4.5c1.4-0.5,2.8-1,4.1-1.6c1.2-0.5,2.4-1.1,3.2-1.7c0.8-0.6,1.4-1.2,1.5-1.4l0.3-0.5
						c0.1-0.1,0.2-0.4,0.4-0.6c0.1-0.2,0.3-0.5,0.4-0.7c0.1-0.3,0.3-0.5,0.4-0.8c1-2.2,2.1-5,2.9-7.9c0.8-2.9,1.6-6,2.2-9.2
						c0.7-3.1,1.2-6.4,1.8-9.6l0.8-4.9l0.7-4.7L329.2,190.7z"/>
					<path class="st20" d="M329.2,190.7l-0.3,2.9c-0.1,0.9-0.2,1.8-0.3,2.7c-0.2,1.8-0.5,3.6-0.8,5.4c-0.6,3.6-1.4,7.2-2.3,10.8
						c-0.9,3.6-2,7.2-3.3,10.9c-0.7,1.8-1.4,3.7-2.3,5.5c-0.9,1.9-1.8,3.7-3,5.6c-0.3,0.5-0.6,1-0.9,1.4c-0.3,0.5-0.7,1-1,1.5
						c-0.4,0.5-0.7,1-1.2,1.5l-0.7,0.7c-0.2,0.2-0.4,0.5-0.7,0.8c-2.3,2.3-4.7,3.7-6.9,4.7c-4.5,2-8.5,2.7-12.4,3.1
						c-2,0.2-3.9,0.3-5.8,0.4c-1.9,0.1-3.8,0-5.6-0.1c-1.9-0.1-3.7-0.3-5.5-0.5c-1.9-0.2-3.6-0.5-5.6-0.9l0.3-10.4
						c6.4-1.3,13.1-2.6,18.9-4.5c1.4-0.5,2.8-1,4.1-1.6c1.2-0.5,2.4-1.1,3.2-1.7c0.8-0.6,1.4-1.2,1.5-1.4l0.3-0.5
						c0.1-0.1,0.2-0.4,0.4-0.6c0.1-0.2,0.3-0.5,0.4-0.7c0.1-0.3,0.3-0.5,0.4-0.8c1-2.2,2.1-5,2.9-7.9c0.8-2.9,1.6-6,2.2-9.2
						c0.7-3.1,1.2-6.4,1.8-9.6l0.8-4.9l0.7-4.7L329.2,190.7z"/>
				</g>
			</g>
			<g>
				<path class="st9" d="M270.1,204c3.2,13.4,7.4,35.8,8.3,65.1H337c0.3-7.2-0.9-48-6.8-77.5c-2.2-11.2-13.2-18.5-24.4-16
					c-0.1,0-0.2,0-0.3,0.1c-7.3,1.7-17.8,4.3-24,6.7c-0.1,0-0.2,0.1-0.3,0.1C272.7,185.8,268,195,270.1,204z"/>
			</g>
			<path class="st20" d="M273.9,222.7c0.5,2.8,0.9,5.8,1.4,8.9c4.8-5,6.3-20.3,6.3-20.3L273.9,222.7z"/>
			<g>
				<path class="st19" d="M225.3,237.7l-13.2-1.2l-0.4,11.1c0,0,6.8,2.2,12.3-3.5L225.3,237.7z"/>
				<polygon class="st19" points="205.7,239.8 201.4,247.4 211.6,247.6 212,236.5 				"/>
				<path class="st9" d="M292.1,198.9c-0.9,1.8-1.7,3.3-2.7,4.9c-0.9,1.6-1.8,3.2-2.8,4.7c-1.9,3.1-3.8,6.2-5.9,9.2
					c-4.1,6.1-8.5,12-13.7,17.6c-2.6,2.9-5.4,5.6-8.7,8.3c-0.4,0.3-0.9,0.7-1.3,1c-0.4,0.3-0.8,0.6-1.5,1c-0.6,0.4-1.2,0.7-1.8,1.1
					c-0.6,0.3-1.2,0.6-1.8,0.9c-2.4,1-4.7,1.7-6.9,2.1c-4.4,0.8-8.6,0.7-12.5,0.3c-2-0.3-3.9-0.6-5.8-1c-0.9-0.2-1.9-0.5-2.8-0.8
					c-1-0.3-1.8-0.6-2.9-1l1.7-10.3c6.3-0.9,13.1-1.9,17.7-4.1c1.2-0.5,2.2-1.1,2.9-1.7c0.4-0.3,0.7-0.6,0.9-0.8
					c0.1-0.1,0.4-0.4,0.6-0.6c0.2-0.2,0.5-0.4,0.7-0.7c2-1.9,4-4.3,6-6.7c3.9-5,7.7-10.5,11.3-16.2c1.8-2.8,3.6-5.7,5.3-8.6l2.6-4.3
					l2.5-4.3L292.1,198.9z"/>
			</g>
			<polygon class="st19" points="276,407.6 265.1,407.6 259.6,382.3 270.5,382.3 			"/>
			<path class="st12" d="M264.5,405.3h12.3c0.4,0,0.8,0.3,0.9,0.7l2.2,9.7c0.2,1-0.6,2-1.6,1.9c-4.3-0.1-6.4-0.3-11.8-0.3
				c-3.3,0-7.6,0.3-12.2,0.3c-4.5,0-5.2-4.5-3.3-5c8.4-1.8,9-4.4,11.7-6.8C263.2,405.5,263.8,405.3,264.5,405.3z"/>
			<g class="st20">
				<polygon points="270.5,382.3 259.6,382.3 262.6,396.3 273.4,395.3 				"/>
			</g>
			<path class="st19" d="M289.7,141.9c3.9,10.1,6.8,15.8,4.1,23.2c-4,11.1-18.2,12.2-25.1,3.4c-6.2-7.9-11.6-23.1-3.8-31.5
				C272.7,128.8,285.8,131.8,289.7,141.9z"/>
			<path class="st12" d="M270.5,157.1c-1.6,2.2-2.9,3.9-2.9,3.9s-3.4-8.4-2.1-12.2c-1.6-3.3-5,1.5-6.2-4.8
				c-1.2-6.3,4.2-13.1,6.2-14.5c0.3,0.5,0.3,2.3,0.3,2.3s8.1-7.2,19.6-6.2c-0.8,0.8-1.1,2.9-1.1,2.9s11.9,2,14.6,8.7
				c-1.7-0.8-3-1.1-3-1.1s3.4,4.2,2.4,10.7c-1,6.5-1.5,13.7-1.3,16.5c0.1,2.8-7.7,8.3-12.4,2.5C279.8,160,270.5,157.1,270.5,157.1z"
				/>
			<path class="st19" d="M275.4,154.9c0.7,2.5,0.3,5.1-0.5,7.1c-1.3,2.9-3.9,2.3-5.2-0.3c-1.2-2.4-1.9-6.7,0.2-8.8
				C272,150.8,274.7,152,275.4,154.9z"/>
			<g>
				<path class="st9" d="M296,269.1c0,0-50.8,18.4-52.3,42.8c-2.8,44.9,15.6,80.5,15.6,80.5l16.8-1.8c0,0-3-14.5-5.2-55.2
					c-2.8-51.1,84,1.2,66.1-66.4L296,269.1z"/>
				<path class="st21" d="M296,269.1c0,0-50.8,18.4-52.3,42.8c-2.8,44.9,15.6,80.5,15.6,80.5l16.8-1.8c0,0-3-14.5-5.2-55.2
					c-2.8-51.1,84,1.2,66.1-66.4L296,269.1z"/>
			</g>
			<path class="st9" d="M254.6,386.2c-0.1,0,2.7,7.5,2.7,7.5l21-2.1l-1.1-6.8L254.6,386.2z"/>
			<g>
				<polygon class="st19" points="228.7,408.8 217.8,408.8 214.6,383.5 225.5,383.5 				"/>
				<path class="st12" d="M217.7,405.3l12,0c0.4,0,0.8,0.3,0.9,0.7l2.2,9.7c0.2,1-0.5,2-1.6,1.9c-4.3-0.1-10.5-0.3-16-0.3
					c-6.3,0-7.6,0.4-15,0.4c-4.5,0-5.7-4.5-3.9-4.9c8.6-1.9,11.3-2.1,18.7-6.7C215.9,405.6,216.8,405.3,217.7,405.3z"/>
				<polygon class="st20" points="214.6,383.5 216.3,397.3 227.2,396.6 225.5,383.5 				"/>
			</g>
			<g>
				<path class="st9" d="M278.5,269.1c0,0-83.3,7.4-82.4,49.2c0.9,43.5,17.2,72.9,17.2,72.9h16.3c0,0-3.1-22.6-2.5-65.4
					c0.2-12.8,26.1-17.1,51.4-18.6c21.9-1.3,42.4-13.8,50.9-34l1.7-4.1H278.5z"/>
				<path class="st21" d="M278.5,269.1c0,0-83.3,7.4-82.4,49.2c0.9,43.5,17.2,72.9,17.2,72.9h16.3c0,0-3.1-22.6-2.5-65.4
					c0.2-12.8,26.1-17.1,51.4-18.6c21.9-1.3,42.4-13.8,50.9-34l1.7-4.1H278.5z"/>
			</g>
			<path class="st9" d="M209.4,386.8c-0.1,0,2.8,7.5,2.8,7.5l19.6-1.4l-1.1-6.8L209.4,386.8z"/>
		</g>
		<g>
			<g>
				<path class="st12" d="M300.3,222.1l-10.6,40.7c-2.7,10.4-4.1,21.1-4.1,31.9v18.9c0,4.8,3.5,8.7,7.9,8.7h54.2
					c4.3,0,7.9-3.9,7.9-8.7v-18.9c0-10.8,1.4-21.6,4.1-31.9l9.3-36c1.4-5.5-2.3-11-7.6-11h-53.6
					C304.4,215.8,301.3,218.4,300.3,222.1z"/>
				<path class="st12" d="M232.9,302.6l1.8,10.1c0.9,5.3,5.6,9.6,10.4,9.6h60.2c4.8,0,8-4.3,7.1-9.6l-1.8-10.1
					c-1.1-6-6.4-10.9-11.9-10.9H241C235.5,291.7,231.9,296.6,232.9,302.6z"/>
			</g>
			<g>
				<polygon class="st9" points="311.2,332.5 279.6,332.5 276.5,322.3 314.2,322.3 				"/>
				<g>
					<rect x="289.8" y="332.5" class="st9" width="11.3" height="75.4"/>
					<polygon class="st22" points="301,407.9 289.8,407.9 289.8,334.3 301,335.4 					"/>
					<polygon class="st22" points="298.3,407.9 295.6,407.9 295.6,334.9 298.3,335.2 					"/>
				</g>
				<path class="st9" d="M321.3,419.6h-51.8c-1.4,0-2-1.8-0.8-2.6l8.2-6c3.9-2.9,8.7-4.5,13.6-4.5h9.8c4.9,0,9.7,1.6,13.6,4.5l8.2,6
					C323.3,417.8,322.7,419.6,321.3,419.6z"/>
			</g>
		</g>
	</g>
</g>
</svg>
